<svg xmlns="http://www.w3.org/2000/svg" viewBox="0 0 512 512"><g id="Telefoon"><rect x="206.68" y="105.77" width="21.72" height="21.72"/><rect x="250.13" y="105.77" width="21.73" height="21.72"/><rect x="370.34" y="236.11" width="21.72" height="21.72"/><rect x="370.34" y="279.56" width="21.72" height="21.72"/><rect x="341.57" y="274.19" width="43.45" height="130.35" transform="translate(-133.56 356.22) rotate(-44.99)"/><rect x="157.22" y="89.85" width="43.43" height="130.32" transform="translate(-57.2 171.93) rotate(-45)"/><path d="M277.44,321.91c-48.48-26.93-63.73-49-81-81a10.58,10.58,0,0,1-.77-7.76l-92.9-92.91c-16.67,22.07-20.35,51.8-8.67,77,30.4,65.75,91.16,155.21,208,208a71.94,71.94,0,0,0,29.67,6.34A76.28,76.28,0,0,0,378,415.47l-92.78-92.79A10.55,10.55,0,0,1,277.44,321.91Z"/><path d="M343.11,243.52a2.91,2.91,0,0,0,5.08,0l38.32-69.3a46.41,46.41,0,1,0-81.7,0ZM345.65,129a23.21,23.21,0,1,1-23.21,23.21A23.23,23.23,0,0,1,345.65,129Z"/></g><g id="Oog"><path d="M502.26,246.23c-4.46-5-111.81-122.07-246.26-122.07S14.2,241.25,9.74,246.23a14.65,14.65,0,0,0,0,19.54c4.46,5,111.81,122.07,246.26,122.07S497.8,270.75,502.26,265.77A14.65,14.65,0,0,0,502.26,246.23ZM256,358.54A102.54,102.54,0,1,1,358.54,256,102.67,102.67,0,0,1,256,358.54Z"/><path d="M270.65,226.7A43.8,43.8,0,0,1,289.09,191,72.29,72.29,0,0,0,256,182.76a73.24,73.24,0,1,0,72,85.59C298.5,277.84,270.65,255.53,270.65,226.7Z"/></g></svg>