<svg id="Capa_1" data-name="Capa 1" xmlns="http://www.w3.org/2000/svg" viewBox="0 0 512 189.79"><path d="M134.62,161.1a94.9,94.9,0,1,0,94.9,94.9A95,95,0,0,0,134.62,161.1Zm0,156.69A61.79,61.79,0,1,1,196.41,256,61.86,61.86,0,0,1,134.62,317.79Z" transform="translate(0 -161.1)"/><path d="M375.72,161.1a94.9,94.9,0,1,0,94.9,94.9A95,95,0,0,0,375.72,161.1Zm0,156.69A61.79,61.79,0,1,1,437.52,256,61.85,61.85,0,0,1,375.72,317.79Z" transform="translate(0 -161.1)"/><path d="M256,208.55c-21.72,0-42.21,12-54.83,32l28,17.64c6.62-10.51,16.39-16.54,26.83-16.54,9.55,0,18.47,5.16,25.11,14.53l27-19.14C295.3,218.94,276.3,208.55,256,208.55Z" transform="translate(0 -161.1)"/><rect x="454.07" y="76.69" width="57.93" height="33.1"/><rect y="76.69" width="55.72" height="33.1"/></svg>