<svg xmlns="http://www.w3.org/2000/svg" viewBox="0 0 2382 1340"><defs><style>.cls-1{fill:#f5f5f5;}.cls-2{fill:#e74b94;}.cls-3{fill:#3b3ef9;}.cls-4{fill:#fff;}</style></defs><g id="Layer_4" data-name="Layer 4"><rect class="cls-1" x="57" y="60" width="768" height="870"/><path d="M126.55,136.12h9c3.76,0,6.54,1.2,8.36,3.6s2.72,5.85,2.72,10.36-.91,8-2.72,10.36-4.6,3.6-8.36,3.6h-9Zm8.6,23.2a4.51,4.51,0,0,0,3.92-1.72,8.54,8.54,0,0,0,1.24-5v-5.08a8.46,8.46,0,0,0-1.24-5,4.51,4.51,0,0,0-3.92-1.72h-2.68v18.48Z"/><path d="M163.47,160.28h-.24a7.5,7.5,0,0,1-2.14,3,5.89,5.89,0,0,1-3.94,1.24,7.24,7.24,0,0,1-2.72-.5,5.41,5.41,0,0,1-2.12-1.5,7.16,7.16,0,0,1-1.38-2.44,10,10,0,0,1-.5-3.32V143.4h5.92V156q0,4,3.48,4a5.09,5.09,0,0,0,1.34-.18,3.47,3.47,0,0,0,1.16-.56,3.24,3.24,0,0,0,.82-.94,2.63,2.63,0,0,0,.32-1.32V143.4h5.92V164h-5.92Z"/><path d="M175.74,159.4h6.56V148h-6.56V143.4h12.49v16h6.07V164H175.74Zm9.52-18.64a3.75,3.75,0,0,1-2.78-.82,2.77,2.77,0,0,1-.77-2V136.8a2.74,2.74,0,0,1,.77-2,5.23,5.23,0,0,1,5.56,0,2.74,2.74,0,0,1,.78,2V138a2.78,2.78,0,0,1-.78,2A3.74,3.74,0,0,1,185.26,140.76Z"/><path d="M209.58,164a6.23,6.23,0,0,1-4.76-1.67,6,6,0,0,1-1.56-4.27V148h-5.6V143.4h3.64a2.71,2.71,0,0,0,1.88-.52,2.56,2.56,0,0,0,.56-1.92v-4.84h5.44v7.28h8V148h-8V159.4h8V164Z"/><path d="M231.74,164.52a15.82,15.82,0,0,1-6-1,8.49,8.49,0,0,1-3.82-2.84l3.32-3.08a8.56,8.56,0,0,0,2.82,2.06,8.89,8.89,0,0,0,3.7.74,5.82,5.82,0,0,0,2.76-.54,1.76,1.76,0,0,0,1-1.66,1.23,1.23,0,0,0-.68-1.22,6.56,6.56,0,0,0-1.88-.54l-3.32-.52a13.55,13.55,0,0,1-2.6-.62,6.83,6.83,0,0,1-2.08-1.14,5.48,5.48,0,0,1-1.4-1.76,5.66,5.66,0,0,1-.52-2.52,6,6,0,0,1,2.48-5.08,11.5,11.5,0,0,1,7-1.84,14.4,14.4,0,0,1,5.18.82,8.21,8.21,0,0,1,3.42,2.34l-3,3.36a7.38,7.38,0,0,0-2.36-1.68,8.15,8.15,0,0,0-3.48-.68c-2.29,0-3.44.69-3.44,2.08a1.29,1.29,0,0,0,.68,1.26,6.66,6.66,0,0,0,1.88.54l3.28.52a13.37,13.37,0,0,1,2.6.62,7.06,7.06,0,0,1,2.1,1.14,5.16,5.16,0,0,1,1.42,1.76,5.52,5.52,0,0,1,.52,2.52,6.05,6.05,0,0,1-2.5,5.12Q236.35,164.52,231.74,164.52Z"/><path d="M246.7,159.4H253V139.08H246.7v-4.64h12.24v25h6.32V164H246.7Z"/><path d="M287.46,164a4.45,4.45,0,0,1-3-.94,4,4,0,0,1-1.32-2.7H283a5,5,0,0,1-2.22,3.08,7.51,7.51,0,0,1-4.06,1,7,7,0,0,1-4.82-1.62,5.77,5.77,0,0,1-1.82-4.54,5.36,5.36,0,0,1,2.36-4.8c1.58-1,3.88-1.56,6.92-1.56h3.32v-1a4,4,0,0,0-.86-2.78,3.77,3.77,0,0,0-2.9-.94,5.72,5.72,0,0,0-3,.72,7.14,7.14,0,0,0-2,1.88L270.62,147a7.83,7.83,0,0,1,3.26-2.9,12.46,12.46,0,0,1,5.7-1.14,10.2,10.2,0,0,1,6.62,1.94c1.59,1.29,2.38,3.25,2.38,5.86v9h2.28V164Zm-8.52-3.4a4.45,4.45,0,0,0,2.64-.76,2.52,2.52,0,0,0,1.08-2.2V155.2H279.5c-2.42,0-3.64.81-3.64,2.44v.8a1.84,1.84,0,0,0,.84,1.64A4,4,0,0,0,278.94,160.64Z"/><path d="M294.58,164V143.4h5.92v3.76h.24a9.19,9.19,0,0,1,.88-1.64,6.16,6.16,0,0,1,1.26-1.34,6,6,0,0,1,1.72-.92,6.72,6.72,0,0,1,2.22-.34,7.24,7.24,0,0,1,2.72.5,5.41,5.41,0,0,1,2.12,1.5,7.16,7.16,0,0,1,1.38,2.44,10,10,0,0,1,.5,3.32V164h-5.92V151.48q0-4-3.48-4a5.09,5.09,0,0,0-1.34.18,3.67,3.67,0,0,0-1.18.56,2.85,2.85,0,0,0-.82.94,2.74,2.74,0,0,0-.3,1.32V164Z"/><path d="M331.7,160.24h-.28a7.88,7.88,0,0,1-2.22,3.09,5.9,5.9,0,0,1-3.9,1.19,7.54,7.54,0,0,1-3.14-.64,6.38,6.38,0,0,1-2.44-2,9.91,9.91,0,0,1-1.6-3.36,20.48,20.48,0,0,1,0-9.68,9.91,9.91,0,0,1,1.6-3.36,6.38,6.38,0,0,1,2.44-2,7.54,7.54,0,0,1,3.14-.64,7,7,0,0,1,2.2.32,5.76,5.76,0,0,1,3,2.24,9.81,9.81,0,0,1,.94,1.72h.28V134.44h5.92V164H331.7Zm-3.84-.36a4.8,4.8,0,0,0,2.7-.75,2.67,2.67,0,0,0,1.14-2.39v-6a2.64,2.64,0,0,0-1.14-2.38,4.73,4.73,0,0,0-2.7-.76,3.94,3.94,0,0,0-3.08,1.21,4.88,4.88,0,0,0-1.08,3.36v3.18a4.88,4.88,0,0,0,1.08,3.36A3.91,3.91,0,0,0,327.86,159.88Z"/><path d="M366.58,164V143.4h5.92v3.76h.24a8.59,8.59,0,0,1,.88-1.64,6.16,6.16,0,0,1,1.26-1.34,5.89,5.89,0,0,1,1.72-.92,6.64,6.64,0,0,1,2.22-.34,7.27,7.27,0,0,1,2.72.5,5.48,5.48,0,0,1,2.12,1.5,7.16,7.16,0,0,1,1.38,2.44,10.21,10.21,0,0,1,.5,3.32V164h-5.92V151.48q0-4-3.48-4a5.09,5.09,0,0,0-1.34.18,3.67,3.67,0,0,0-1.18.56,2.66,2.66,0,0,0-1.12,2.26V164Z"/><path d="M400.54,164.52c-3.47,0-6.09-1-7.88-2.88A11,11,0,0,1,390,153.8a13.74,13.74,0,0,1,.7-4.54,9.75,9.75,0,0,1,2-3.44,8.52,8.52,0,0,1,3.16-2.16,11.28,11.28,0,0,1,4.18-.74,11.13,11.13,0,0,1,4.16.74,8.51,8.51,0,0,1,3.12,2.1,9.56,9.56,0,0,1,2,3.3,12.63,12.63,0,0,1,.7,4.34v1.76H395.86v.36a4.3,4.3,0,0,0,1.24,3.22,5,5,0,0,0,3.64,1.22,6.61,6.61,0,0,0,3.16-.7,7.58,7.58,0,0,0,2.28-1.86l3.2,3.48a10,10,0,0,1-3.36,2.56A12.24,12.24,0,0,1,400.54,164.52Zm-.48-17.36a4,4,0,0,0-3.06,1.18,4.39,4.39,0,0,0-1.14,3.18v.32h8.32v-.32a4.47,4.47,0,0,0-1.1-3.2A4,4,0,0,0,400.06,147.16Z"/><path d="M424.54,164.52c-3.47,0-6.09-1-7.88-2.88A11,11,0,0,1,414,153.8a13.74,13.74,0,0,1,.7-4.54,9.75,9.75,0,0,1,2-3.44,8.52,8.52,0,0,1,3.16-2.16,11.28,11.28,0,0,1,4.18-.74,11.13,11.13,0,0,1,4.16.74,8.51,8.51,0,0,1,3.12,2.1,9.56,9.56,0,0,1,2,3.3,12.63,12.63,0,0,1,.7,4.34v1.76H419.86v.36a4.3,4.3,0,0,0,1.24,3.22,5,5,0,0,0,3.64,1.22,6.61,6.61,0,0,0,3.16-.7,7.58,7.58,0,0,0,2.28-1.86l3.2,3.48a10,10,0,0,1-3.36,2.56A12.24,12.24,0,0,1,424.54,164.52Zm-.48-17.36a4,4,0,0,0-3.06,1.18,4.39,4.39,0,0,0-1.14,3.18v.32h8.32v-.32a4.47,4.47,0,0,0-1.1-3.2A4,4,0,0,0,424.06,147.16Z"/><path d="M437.18,164V143.4h4.76v3h.28A7.21,7.21,0,0,1,443.6,144a3.19,3.19,0,0,1,2.54-1q3,0,3.68,3.52h.24a7.91,7.91,0,0,1,.6-1.36,4.41,4.41,0,0,1,.88-1.12,4,4,0,0,1,1.24-.76,4.55,4.55,0,0,1,1.68-.28q4.32,0,4.32,6.36V164H454V149.88a3.16,3.16,0,0,0-.5-2,1.63,1.63,0,0,0-1.3-.58,1.85,1.85,0,0,0-1.3.5,2,2,0,0,0-.54,1.54V164h-4.8V149.88a3.32,3.32,0,0,0-.46-2,1.52,1.52,0,0,0-1.26-.58,1.83,1.83,0,0,0-1.92,2V164Z"/><path d="M473.58,164a6.23,6.23,0,0,1-4.76-1.67,6,6,0,0,1-1.56-4.27V148h-5.6V143.4h3.64a2.71,2.71,0,0,0,1.88-.52,2.6,2.6,0,0,0,.56-1.92v-4.84h5.44v7.28h8V148h-8V159.4h8V164Z"/><path d="M510.58,134.44h5.92v16.8h.28l2.76-3.24,4.32-4.6h6.8l-8,8.16L531.5,164h-7l-6-9.12-2,2V164h-5.92Z"/><path d="M544,164.52a12,12,0,0,1-4.32-.74,8.82,8.82,0,0,1-3.26-2.14,9.4,9.4,0,0,1-2.06-3.4,14.55,14.55,0,0,1,0-9,9.4,9.4,0,0,1,2.06-3.4,8.82,8.82,0,0,1,3.26-2.14,13,13,0,0,1,8.64,0,8.9,8.9,0,0,1,3.26,2.14,9.54,9.54,0,0,1,2.06,3.4,14.55,14.55,0,0,1,0,9,9.54,9.54,0,0,1-2.06,3.4,8.9,8.9,0,0,1-3.26,2.14A12,12,0,0,1,544,164.52Zm0-4.4a4,4,0,0,0,3.12-1.24,5.11,5.11,0,0,0,1.12-3.52v-3.28a5.11,5.11,0,0,0-1.12-3.52,4.55,4.55,0,0,0-6.24,0,5.06,5.06,0,0,0-1.12,3.52v3.28a5.06,5.06,0,0,0,1.12,3.52A4,4,0,0,0,544,160.12Z"/><path d="M557.18,164V143.4h4.76v3h.28A7.21,7.21,0,0,1,563.6,144a3.18,3.18,0,0,1,2.54-1c2,0,3.22,1.17,3.68,3.52h.24a7.91,7.91,0,0,1,.6-1.36,4.41,4.41,0,0,1,.88-1.12,3.86,3.86,0,0,1,1.24-.76,4.55,4.55,0,0,1,1.68-.28q4.32,0,4.32,6.36V164H574V149.88a3.16,3.16,0,0,0-.5-2,1.64,1.64,0,0,0-1.3-.58,1.85,1.85,0,0,0-1.3.5,2,2,0,0,0-.54,1.54V164h-4.8V149.88a3.39,3.39,0,0,0-.46-2,1.52,1.52,0,0,0-1.26-.58,2,2,0,0,0-1.36.5,1.94,1.94,0,0,0-.56,1.54V164Z"/><path d="M592.54,164.52q-5.2,0-7.88-2.88A11,11,0,0,1,582,153.8a13.74,13.74,0,0,1,.7-4.54,9.6,9.6,0,0,1,2-3.44,8.44,8.44,0,0,1,3.16-2.16,12.12,12.12,0,0,1,8.34,0,8.68,8.68,0,0,1,3.12,2.1,9.56,9.56,0,0,1,2,3.3,12.87,12.87,0,0,1,.7,4.34v1.76H587.86v.36a4.3,4.3,0,0,0,1.24,3.22,5,5,0,0,0,3.64,1.22,6.64,6.64,0,0,0,3.16-.7,7.58,7.58,0,0,0,2.28-1.86l3.2,3.48a10,10,0,0,1-3.36,2.56A12.24,12.24,0,0,1,592.54,164.52Zm-.48-17.36a4,4,0,0,0-3.06,1.18,4.39,4.39,0,0,0-1.14,3.18v.32h8.32v-.32a4.47,4.47,0,0,0-1.1-3.2A4,4,0,0,0,592.06,147.16Z"/><path d="M606.58,164V143.4h5.92v3.76h.24a8.59,8.59,0,0,1,.88-1.64,5.71,5.71,0,0,1,1.26-1.34,5.77,5.77,0,0,1,1.72-.92,6.64,6.64,0,0,1,2.22-.34,7.31,7.31,0,0,1,2.72.5,5.55,5.55,0,0,1,2.12,1.5,7.5,7.5,0,0,1,1.38,2.44,10.21,10.21,0,0,1,.5,3.32V164h-5.92V151.48q0-4-3.48-4a5,5,0,0,0-1.34.18,3.58,3.58,0,0,0-1.18.56,2.66,2.66,0,0,0-1.12,2.26V164Z"/><path d="M643.7,160.24h-.28a8.08,8.08,0,0,1-2.22,3.09,5.92,5.92,0,0,1-3.9,1.19,7.47,7.47,0,0,1-3.14-.64,6.38,6.38,0,0,1-2.44-2,9.73,9.73,0,0,1-1.6-3.36,20.48,20.48,0,0,1,0-9.68,9.73,9.73,0,0,1,1.6-3.36,6.38,6.38,0,0,1,2.44-2,7.47,7.47,0,0,1,3.14-.64,7.08,7.08,0,0,1,2.2.32,6.24,6.24,0,0,1,1.7.89,6.09,6.09,0,0,1,1.28,1.35,10.51,10.51,0,0,1,.94,1.72h.28V134.44h5.92V164H643.7Zm-3.84-.36a4.8,4.8,0,0,0,2.7-.75,2.67,2.67,0,0,0,1.14-2.39v-6a2.64,2.64,0,0,0-1.14-2.38,4.73,4.73,0,0,0-2.7-.76,3.93,3.93,0,0,0-3.08,1.21,4.88,4.88,0,0,0-1.08,3.36v3.18a4.88,4.88,0,0,0,1.08,3.36A3.89,3.89,0,0,0,639.86,159.88Z"/><path d="M664.54,164.52q-5.2,0-7.88-2.88A11,11,0,0,1,654,153.8a13.74,13.74,0,0,1,.7-4.54,9.6,9.6,0,0,1,2-3.44,8.49,8.49,0,0,1,3.15-2.16,11.37,11.37,0,0,1,4.19-.74,11.17,11.17,0,0,1,4.16.74,8.56,8.56,0,0,1,3.11,2.1,9.26,9.26,0,0,1,2,3.3,12.62,12.62,0,0,1,.71,4.34v1.76H659.85v.36a4.31,4.31,0,0,0,1.25,3.22,5,5,0,0,0,3.63,1.22,6.65,6.65,0,0,0,3.17-.7,7.71,7.71,0,0,0,2.28-1.86l3.19,3.48a9.8,9.8,0,0,1-3.35,2.56A12.24,12.24,0,0,1,664.54,164.52Zm-.48-17.36a4,4,0,0,0-3.06,1.18,4.36,4.36,0,0,0-1.15,3.18v.32h8.33v-.32a4.47,4.47,0,0,0-1.1-3.2A4,4,0,0,0,664.06,147.16Z"/><path d="M124.27,191.4h4.92l1.48,16.72h.4l2.44-16.72h5.2l2.4,16.72h.4L143,191.4h4.68L145.27,212h-7l-2-14.24h-.4l-2,14.24h-7Z"/><path d="M160.55,212.52q-5.2,0-7.88-2.88A11,11,0,0,1,150,201.8a13.74,13.74,0,0,1,.7-4.54,9.6,9.6,0,0,1,2-3.44,8.44,8.44,0,0,1,3.16-2.16,12.12,12.12,0,0,1,8.34,0,8.68,8.68,0,0,1,3.12,2.1,9.56,9.56,0,0,1,2,3.3,12.87,12.87,0,0,1,.7,4.34v1.76H155.87v.36a4.3,4.3,0,0,0,1.24,3.22,5,5,0,0,0,3.64,1.22,6.64,6.64,0,0,0,3.16-.7,7.58,7.58,0,0,0,2.28-1.86l3.2,3.48a10,10,0,0,1-3.36,2.56A12.24,12.24,0,0,1,160.55,212.52Zm-.48-17.36a4,4,0,0,0-3.06,1.18,4.39,4.39,0,0,0-1.14,3.18v.32h8.32v-.32a4.47,4.47,0,0,0-1.1-3.2A4,4,0,0,0,160.07,195.16Z"/><path d="M184.54,212.52c-3.46,0-6.09-1-7.87-2.88A11,11,0,0,1,174,201.8a13.73,13.73,0,0,1,.71-4.54,9.6,9.6,0,0,1,2-3.44,8.41,8.41,0,0,1,3.15-2.16,11.32,11.32,0,0,1,4.18-.74,11.19,11.19,0,0,1,4.17.74,8.56,8.56,0,0,1,3.11,2.1,9.26,9.26,0,0,1,2,3.3,12.63,12.63,0,0,1,.7,4.34v1.76H179.86v.36a4.34,4.34,0,0,0,1.24,3.22,5,5,0,0,0,3.64,1.22,6.61,6.61,0,0,0,3.16-.7,7.75,7.75,0,0,0,2.29-1.86l3.19,3.48a10,10,0,0,1-3.36,2.56A12.21,12.21,0,0,1,184.54,212.52Zm-.48-17.36a4,4,0,0,0-3.06,1.18,4.39,4.39,0,0,0-1.14,3.18v.32h8.33v-.32a4.43,4.43,0,0,0-1.11-3.2A4,4,0,0,0,184.06,195.16Z"/><path d="M198.58,182.44h5.92v16.8h.28l2.76-3.24,4.32-4.6h6.8l-8,8.16L219.5,212h-7l-6-9.12-2,2V212h-5.92Z"/><path d="M256.82,212.52a12.34,12.34,0,0,1-4.38-.74,8.9,8.9,0,0,1-3.28-2.14,9.54,9.54,0,0,1-2.06-3.4,14.55,14.55,0,0,1,0-9,9.54,9.54,0,0,1,2.06-3.4,8.9,8.9,0,0,1,3.28-2.14,12.2,12.2,0,0,1,4.34-.74,9.64,9.64,0,0,1,5.46,1.38,8.86,8.86,0,0,1,3.14,3.66l-4.56,2.48a6,6,0,0,0-1.46-2,3.78,3.78,0,0,0-2.58-.8,4.08,4.08,0,0,0-3.14,1.18,4.56,4.56,0,0,0-1.1,3.22v3.36a4.56,4.56,0,0,0,1.1,3.22,5,5,0,0,0,5.92.38,6.55,6.55,0,0,0,1.66-2.08l4.48,2.56a8.93,8.93,0,0,1-3.26,3.66A10.21,10.21,0,0,1,256.82,212.52Z"/><path d="M280,212.52a12,12,0,0,1-4.32-.74,8.9,8.9,0,0,1-3.26-2.14,9.54,9.54,0,0,1-2.06-3.4,14.55,14.55,0,0,1,0-9,9.54,9.54,0,0,1,2.06-3.4,8.9,8.9,0,0,1,3.26-2.14,13,13,0,0,1,8.64,0,8.82,8.82,0,0,1,3.26,2.14,9.4,9.4,0,0,1,2.06,3.4,14.55,14.55,0,0,1,0,9,9.4,9.4,0,0,1-2.06,3.4,8.82,8.82,0,0,1-3.26,2.14A12,12,0,0,1,280,212.52Zm0-4.4a4,4,0,0,0,3.12-1.24,5.06,5.06,0,0,0,1.12-3.52v-3.28a5.06,5.06,0,0,0-1.12-3.52,4.55,4.55,0,0,0-6.24,0,5.11,5.11,0,0,0-1.12,3.52v3.28a5.11,5.11,0,0,0,1.12,3.52A4,4,0,0,0,280,208.12Z"/><path d="M294.94,207.4h4.76V196h-4.76V191.4h10.68v5.84h.28a12.33,12.33,0,0,1,.78-2.18,7.26,7.26,0,0,1,1.28-1.88,5.68,5.68,0,0,1,1.9-1.3,6.69,6.69,0,0,1,2.64-.48h2v5.44h-4.4a4.15,4.15,0,0,0-3.32,1.3,4.7,4.7,0,0,0-1.12,3.16v6.1h6.8V212H294.94Z"/><path d="M328,212.52a12,12,0,0,1-4.32-.74,8.82,8.82,0,0,1-3.26-2.14,9.54,9.54,0,0,1-2.06-3.4,14.55,14.55,0,0,1,0-9,9.54,9.54,0,0,1,2.06-3.4,8.82,8.82,0,0,1,3.26-2.14,13,13,0,0,1,8.64,0,8.82,8.82,0,0,1,3.26,2.14,9.4,9.4,0,0,1,2.06,3.4,14.55,14.55,0,0,1,0,9,9.4,9.4,0,0,1-2.06,3.4,8.82,8.82,0,0,1-3.26,2.14A12,12,0,0,1,328,212.52Zm0-4.4a4,4,0,0,0,3.12-1.24,5.06,5.06,0,0,0,1.12-3.52v-3.28a5.06,5.06,0,0,0-1.12-3.52,4.55,4.55,0,0,0-6.24,0,5.11,5.11,0,0,0-1.12,3.52v3.28a5.11,5.11,0,0,0,1.12,3.52A4,4,0,0,0,328,208.12Z"/><path d="M342.58,212V191.4h5.92v3.76h.24a8.59,8.59,0,0,1,.88-1.64,6.16,6.16,0,0,1,1.26-1.34,5.89,5.89,0,0,1,1.72-.92,6.64,6.64,0,0,1,2.22-.34,7.27,7.27,0,0,1,2.72.5,5.48,5.48,0,0,1,2.12,1.5,7.16,7.16,0,0,1,1.38,2.44,10.21,10.21,0,0,1,.5,3.32V212h-5.92V199.48q0-4-3.48-4a5.09,5.09,0,0,0-1.34.18,3.67,3.67,0,0,0-1.18.56,2.66,2.66,0,0,0-1.12,2.26V212Z"/><path d="M383.46,212a4.43,4.43,0,0,1-3-.94,3.93,3.93,0,0,1-1.32-2.7H379a5,5,0,0,1-2.22,3.08,7.54,7.54,0,0,1-4.06,1,7,7,0,0,1-4.82-1.62,5.77,5.77,0,0,1-1.82-4.54,5.36,5.36,0,0,1,2.36-4.8q2.35-1.56,6.92-1.56h3.32v-1a4,4,0,0,0-.86-2.78,3.77,3.77,0,0,0-2.9-.94,5.7,5.7,0,0,0-3,.72,7.14,7.14,0,0,0-2,1.88L366.62,195a7.77,7.77,0,0,1,3.26-2.9,12.46,12.46,0,0,1,5.7-1.14,10.22,10.22,0,0,1,6.62,1.94c1.59,1.29,2.38,3.25,2.38,5.86v9h2.28V212Zm-8.52-3.4a4.45,4.45,0,0,0,2.64-.76,2.52,2.52,0,0,0,1.08-2.2V203.2H375.5q-3.64,0-3.64,2.44v.8a1.84,1.84,0,0,0,.84,1.64A4,4,0,0,0,374.94,208.64Z"/><path d="M393.58,202.68V197h12.8v5.68Z"/><path d="M431.46,212a4.43,4.43,0,0,1-3-.94,3.93,3.93,0,0,1-1.32-2.7H427a5,5,0,0,1-2.22,3.08,7.54,7.54,0,0,1-4.06,1,7,7,0,0,1-4.82-1.62,5.77,5.77,0,0,1-1.82-4.54,5.36,5.36,0,0,1,2.36-4.8q2.35-1.56,6.92-1.56h3.32v-1a4,4,0,0,0-.86-2.78,3.77,3.77,0,0,0-2.9-.94,5.7,5.7,0,0,0-3,.72,7.14,7.14,0,0,0-2,1.88L414.62,195a7.77,7.77,0,0,1,3.26-2.9,12.46,12.46,0,0,1,5.7-1.14,10.22,10.22,0,0,1,6.62,1.94c1.59,1.29,2.38,3.25,2.38,5.86v9h2.28V212Zm-8.52-3.4a4.45,4.45,0,0,0,2.64-.76,2.52,2.52,0,0,0,1.08-2.2V203.2H423.5q-3.64,0-3.64,2.44v.8a1.84,1.84,0,0,0,.84,1.64A4,4,0,0,0,422.94,208.64Z"/><path d="M438.34,191.4h5.92v3.8h.28a7.83,7.83,0,0,1,2.2-3.07,5.89,5.89,0,0,1,3.92-1.21,7.5,7.5,0,0,1,3.14.64,6.38,6.38,0,0,1,2.44,2,9.91,9.91,0,0,1,1.6,3.36,20.48,20.48,0,0,1,0,9.68,9.91,9.91,0,0,1-1.6,3.36,6.38,6.38,0,0,1-2.44,2,7.5,7.5,0,0,1-3.14.64,6,6,0,0,1-3.92-1.19,7.55,7.55,0,0,1-2.2-3.09h-.28V220h-5.92Zm9.76,16.48a3.91,3.91,0,0,0,3.08-1.21,4.88,4.88,0,0,0,1.08-3.36v-3.18a4.88,4.88,0,0,0-1.08-3.36,3.94,3.94,0,0,0-3.08-1.21,4.73,4.73,0,0,0-2.7.76,2.64,2.64,0,0,0-1.14,2.38v6a2.67,2.67,0,0,0,1.14,2.39A4.8,4.8,0,0,0,448.1,207.88Z"/><path d="M462.34,191.4h5.92v3.8h.28a7.83,7.83,0,0,1,2.2-3.07,5.89,5.89,0,0,1,3.92-1.21,7.5,7.5,0,0,1,3.14.64,6.38,6.38,0,0,1,2.44,2,9.91,9.91,0,0,1,1.6,3.36,20.48,20.48,0,0,1,0,9.68,9.91,9.91,0,0,1-1.6,3.36,6.38,6.38,0,0,1-2.44,2,7.5,7.5,0,0,1-3.14.64,6,6,0,0,1-3.92-1.19,7.55,7.55,0,0,1-2.2-3.09h-.28V220h-5.92Zm9.76,16.48a3.91,3.91,0,0,0,3.08-1.21,4.88,4.88,0,0,0,1.08-3.36v-3.18a4.88,4.88,0,0,0-1.08-3.36,3.94,3.94,0,0,0-3.08-1.21,4.73,4.73,0,0,0-2.7.76,2.64,2.64,0,0,0-1.14,2.38v6a2.67,2.67,0,0,0,1.14,2.39A4.8,4.8,0,0,0,472.1,207.88Z"/><path d="M511.74,207.4h6.56V196h-6.56V191.4h12.48v16h6.08V212H511.74Zm9.52-18.64a3.74,3.74,0,0,1-2.78-.82,2.78,2.78,0,0,1-.78-2V184.8a2.74,2.74,0,0,1,.78-2,5.23,5.23,0,0,1,5.56,0,2.74,2.74,0,0,1,.78,2V186a2.78,2.78,0,0,1-.78,2A3.75,3.75,0,0,1,521.26,188.76Z"/><path d="M534.58,212V191.4h5.92v3.76h.24a8.59,8.59,0,0,1,.88-1.64,5.71,5.71,0,0,1,1.26-1.34,5.77,5.77,0,0,1,1.72-.92,6.64,6.64,0,0,1,2.22-.34,7.31,7.31,0,0,1,2.72.5,5.55,5.55,0,0,1,2.12,1.5,7.5,7.5,0,0,1,1.38,2.44,10.21,10.21,0,0,1,.5,3.32V212h-5.92V199.48q0-4-3.48-4a5,5,0,0,0-1.34.18,3.58,3.58,0,0,0-1.18.56,2.66,2.66,0,0,0-1.12,2.26V212Z"/><path d="M603.3,214.12a5.18,5.18,0,0,1-2.76,4.84c-1.84,1-4.74,1.56-8.68,1.56a28.42,28.42,0,0,1-4.88-.34,9.82,9.82,0,0,1-3.06-1,3.81,3.81,0,0,1-1.6-1.52,4.06,4.06,0,0,1-.46-1.92,3.31,3.31,0,0,1,1-2.66,7,7,0,0,1,2.92-1.38v-.24a5.26,5.26,0,0,1-2.1-1.14,2.75,2.75,0,0,1-.78-2.1,2.56,2.56,0,0,1,1-2.24,7.87,7.87,0,0,1,2.7-1.12v-.24a6.74,6.74,0,0,1-2.86-2.48,7.08,7.08,0,0,1-1-3.88,7.43,7.43,0,0,1,.64-3.18,6,6,0,0,1,1.82-2.3,8.28,8.28,0,0,1,2.82-1.4,13.07,13.07,0,0,1,3.68-.48,14.52,14.52,0,0,1,3.64.44v-1.12a2.64,2.64,0,0,1,.84-2,3.24,3.24,0,0,1,2.32-.8h3.64v4.32h-5v.36a6.59,6.59,0,0,1,2.62,2.42,7.11,7.11,0,0,1,.94,3.74,7.46,7.46,0,0,1-.64,3.16,6.32,6.32,0,0,1-1.84,2.3,8.34,8.34,0,0,1-2.86,1.42,13.32,13.32,0,0,1-3.7.48,14.14,14.14,0,0,1-1.76-.1,11.07,11.07,0,0,1-1.6-.3,2.44,2.44,0,0,0-.74.6,1.39,1.39,0,0,0-.3.92,1.14,1.14,0,0,0,.24.76,1.4,1.4,0,0,0,.66.42,4.29,4.29,0,0,0,1,.18c.37,0,.76,0,1.16,0h4.72a14.16,14.16,0,0,1,3.76.44,7.19,7.19,0,0,1,2.56,1.24,4.8,4.8,0,0,1,1.44,1.88A6.37,6.37,0,0,1,603.3,214.12Zm-5.6.44a1.49,1.49,0,0,0-.64-1.26,4.48,4.48,0,0,0-2.44-.46h-7.08a2.09,2.09,0,0,0-.8,1.68,1.89,1.89,0,0,0,.82,1.58,4.73,4.73,0,0,0,2.78.62h3.48a6,6,0,0,0,3-.56A1.78,1.78,0,0,0,597.7,214.56Zm-6-12.68a3.43,3.43,0,0,0,2.62-.88,3.19,3.19,0,0,0,.82-2.24v-1a3.19,3.19,0,0,0-.82-2.24,3.43,3.43,0,0,0-2.62-.88,3.28,3.28,0,0,0-2.56.88,3.17,3.17,0,0,0-.8,2.24v1a3.17,3.17,0,0,0,.8,2.24A3.28,3.28,0,0,0,591.74,201.88Z"/><path d="M616.54,212.52q-5.2,0-7.88-2.88A11,11,0,0,1,606,201.8a13.74,13.74,0,0,1,.7-4.54,9.6,9.6,0,0,1,2-3.44,8.44,8.44,0,0,1,3.16-2.16,12.12,12.12,0,0,1,8.34,0,8.68,8.68,0,0,1,3.12,2.1,9.56,9.56,0,0,1,2,3.3,12.87,12.87,0,0,1,.7,4.34v1.76H611.86v.36a4.3,4.3,0,0,0,1.24,3.22,5,5,0,0,0,3.64,1.22,6.64,6.64,0,0,0,3.16-.7,7.58,7.58,0,0,0,2.28-1.86l3.2,3.48a10,10,0,0,1-3.36,2.56A12.24,12.24,0,0,1,616.54,212.52Zm-.48-17.36a4,4,0,0,0-3.06,1.18,4.39,4.39,0,0,0-1.14,3.18v.32h8.32v-.32a4.47,4.47,0,0,0-1.1-3.2A4,4,0,0,0,616.06,195.16Z"/><path d="M630.34,182.44h5.92V195.2h.28a7.73,7.73,0,0,1,2.2-3.07,5.87,5.87,0,0,1,3.92-1.21,7.54,7.54,0,0,1,3.14.64,6.45,6.45,0,0,1,2.44,2,9.91,9.91,0,0,1,1.6,3.36,20.48,20.48,0,0,1,0,9.68,9.91,9.91,0,0,1-1.6,3.36,6.45,6.45,0,0,1-2.44,2,7.54,7.54,0,0,1-3.14.64,6,6,0,0,1-3.92-1.19,7.46,7.46,0,0,1-2.2-3.09h-.28V212h-5.92Zm9.76,25.44a3.91,3.91,0,0,0,3.08-1.21,4.88,4.88,0,0,0,1.08-3.36v-3.18a4.88,4.88,0,0,0-1.08-3.36,3.94,3.94,0,0,0-3.08-1.21,4.73,4.73,0,0,0-2.7.76,2.64,2.64,0,0,0-1.14,2.38v6a2.67,2.67,0,0,0,1.14,2.39A4.8,4.8,0,0,0,640.1,207.88Z"/><path d="M654.94,207.4h4.76V196h-4.76V191.4h10.68v5.84h.28a10.92,10.92,0,0,1,.78-2.18,7,7,0,0,1,1.28-1.88,5.64,5.64,0,0,1,1.89-1.3,6.71,6.71,0,0,1,2.65-.48h2v5.44h-4.4a4.15,4.15,0,0,0-3.33,1.3,4.69,4.69,0,0,0-1.11,3.16v6.1h6.8V212H654.94Z"/><path d="M691.45,208.28h-.24a7.31,7.31,0,0,1-2.14,3,5.85,5.85,0,0,1-3.94,1.24,7.31,7.31,0,0,1-2.72-.5,5.55,5.55,0,0,1-2.12-1.5,7.5,7.5,0,0,1-1.38-2.44,10.21,10.21,0,0,1-.5-3.32V191.4h5.92V204q0,4,3.48,4a5,5,0,0,0,1.34-.18,3.38,3.38,0,0,0,1.16-.56,3,3,0,0,0,.82-.94,2.53,2.53,0,0,0,.32-1.32V191.4h5.92V212h-5.92Z"/><path d="M703.73,207.4h6.56V196h-6.56V191.4h12.48v16h6.08V212H703.73Zm9.52-18.64a3.75,3.75,0,0,1-2.78-.82,2.78,2.78,0,0,1-.78-2V184.8a2.74,2.74,0,0,1,.78-2,5.23,5.23,0,0,1,5.56,0,2.74,2.74,0,0,1,.78,2V186a2.78,2.78,0,0,1-.78,2A3.74,3.74,0,0,1,713.25,188.76Z"/><path d="M726.57,182.44h5.92v16.8h.28l2.76-3.24,4.32-4.6h6.8l-8,8.16L747.49,212h-7l-6-9.12-2,2V212h-5.92Z"/><rect class="cls-2" x="124" y="377" width="360" height="60"/><rect class="cls-2" x="384" y="477" width="100" height="60"/><rect class="cls-2" x="124" y="477" width="213" height="60"/><rect class="cls-2" x="124" y="689" width="360" height="60" transform="translate(608 1438) rotate(180)"/><rect class="cls-2" x="531" y="689" width="213" height="60" transform="translate(1275 1438) rotate(180)"/><rect class="cls-2" x="124" y="277" width="360" height="60" transform="translate(608 614) rotate(180)"/><rect class="cls-2" x="531" y="277" width="213" height="60" transform="translate(1275 614) rotate(180)"/><rect class="cls-3" x="531" y="377" width="213" height="160"/><rect class="cls-2" x="124" y="795" width="360" height="60"/><rect class="cls-2" x="531" y="795" width="150" height="60"/><rect class="cls-2" x="124" y="583" width="283" height="60"/><rect class="cls-2" x="448" y="583" width="264" height="60"/></g><g id="Layer_6" data-name="Layer 6"><rect class="cls-1" x="1041" y="102" width="1275" height="561"/><path d="M1109.89,217.23v-5.77h7.8V186.71h-7.8v-5.78h23.4v5.78h-7.8v24.75h7.8v5.77Z"/><path d="M1154.87,217.23q-4.17,0-6.19-2.18a7.83,7.83,0,0,1-2-5.55V196.43h-7.28v-6h4.73a3.57,3.57,0,0,0,2.45-.68,3.37,3.37,0,0,0,.72-2.49v-6.3h7.08v9.47h10.45v6h-10.45V211.2h10.45v6Z"/><path d="M1193.71,217.23a5.81,5.81,0,0,1-3.85-1.22,5.13,5.13,0,0,1-1.71-3.51h-.26a6.58,6.58,0,0,1-2.89,4,9.77,9.77,0,0,1-5.28,1.35,9.06,9.06,0,0,1-6.26-2.1,7.49,7.49,0,0,1-2.37-5.9,7,7,0,0,1,3.07-6.25q3.06-2,9-2h4.32v-1.35a5.18,5.18,0,0,0-1.12-3.62,4.93,4.93,0,0,0-3.77-1.22,7.33,7.33,0,0,0-3.95.94,9,9,0,0,0-2.6,2.44l-4.21-3.75a10.1,10.1,0,0,1,4.24-3.77,16.28,16.28,0,0,1,7.41-1.48q5.51,0,8.6,2.52c2.06,1.69,3.1,4.23,3.1,7.62v11.76h3v5.56Zm-11.08-4.42a5.82,5.82,0,0,0,3.44-1,3.29,3.29,0,0,0,1.4-2.86v-3.22h-4.11c-3.15,0-4.73,1-4.73,3.17v1a2.39,2.39,0,0,0,1.09,2.13A5.14,5.14,0,0,0,1182.63,212.81Z"/><path d="M1203.12,211.2h8.22V184.78h-8.22v-6H1219V211.2h8.22v6h-24.13Z"/><path d="M1235.67,211.2h8.53V196.43h-8.53v-6h16.23v20.8h7.9v6h-24.13ZM1248.05,187c-1.74,0-2.94-.35-3.62-1.06a3.62,3.62,0,0,1-1-2.57v-1.51a3.59,3.59,0,0,1,1-2.6c.68-.7,1.88-1,3.62-1s2.94.34,3.61,1a3.56,3.56,0,0,1,1,2.6v1.51a3.59,3.59,0,0,1-1,2.57C1251,186.61,1249.78,187,1248.05,187Z"/><path d="M1278.31,217.85q-6.75,0-10.24-3.74t-3.49-10.19a18.09,18.09,0,0,1,.91-5.9,12.77,12.77,0,0,1,2.6-4.48,11.16,11.16,0,0,1,4.11-2.81,14.61,14.61,0,0,1,5.44-1,14.36,14.36,0,0,1,5.4,1,11.45,11.45,0,0,1,4.06,2.73,12.13,12.13,0,0,1,2.57,4.29,16.54,16.54,0,0,1,.91,5.65v2.29h-18.35v.46a5.63,5.63,0,0,0,1.61,4.19,6.45,6.45,0,0,0,4.73,1.58,8.72,8.72,0,0,0,4.11-.9,9.87,9.87,0,0,0,3-2.42l4.16,4.52a13.06,13.06,0,0,1-4.36,3.33A16,16,0,0,1,1278.31,217.85Zm-6.39-31.35a4.38,4.38,0,0,1-3.25-1,3.26,3.26,0,0,1-.91-2.32v-1.35a3.16,3.16,0,0,1,.91-2.29,4.48,4.48,0,0,1,3.25-.93,4.56,4.56,0,0,1,3.27.93,3.11,3.11,0,0,1,.94,2.29v1.35a3.21,3.21,0,0,1-.94,2.32A4.47,4.47,0,0,1,1271.92,186.5Zm5.77,8.79a5.28,5.28,0,0,0-4,1.53,5.68,5.68,0,0,0-1.48,4.13v.42H1283V201a5.79,5.79,0,0,0-1.43-4.16A5.15,5.15,0,0,0,1277.69,195.29Zm5.67-8.79a4.51,4.51,0,0,1-3.28-1,3.25,3.25,0,0,1-.94-2.32v-1.35a3.15,3.15,0,0,1,.94-2.29,4.61,4.61,0,0,1,3.28-.93,4.49,4.49,0,0,1,3.25.93,3.2,3.2,0,0,1,.91,2.29v1.35a3.31,3.31,0,0,1-.91,2.32A4.4,4.4,0,0,1,1283.36,186.5Z"/><path d="M1354.7,219.93a6.76,6.76,0,0,1-3.59,6.3q-3.58,2-11.28,2a38.08,38.08,0,0,1-6.35-.44,12.69,12.69,0,0,1-4-1.27,5,5,0,0,1-2.08-2,5.28,5.28,0,0,1-.6-2.5,4.32,4.32,0,0,1,1.35-3.45,9.29,9.29,0,0,1,3.8-1.8v-.31a6.71,6.71,0,0,1-2.73-1.48,3.57,3.57,0,0,1-1-2.73,3.3,3.3,0,0,1,1.33-2.91,10,10,0,0,1,3.51-1.46v-.31a8.71,8.71,0,0,1-3.72-3.23,9.19,9.19,0,0,1-1.33-5,9.61,9.61,0,0,1,.84-4.13,7.88,7.88,0,0,1,2.36-3,10.7,10.7,0,0,1,3.67-1.82,16.82,16.82,0,0,1,4.78-.63,18.19,18.19,0,0,1,4.73.58v-1.46a3.44,3.44,0,0,1,1.1-2.6,4.19,4.19,0,0,1,3-1h4.73v5.62h-6.44v.46a8.62,8.62,0,0,1,3.4,3.15,9.11,9.11,0,0,1,1.22,4.86,9.49,9.49,0,0,1-.83,4.11,8.07,8.07,0,0,1-2.39,3,11,11,0,0,1-3.72,1.85,17.52,17.52,0,0,1-4.81.62,18.7,18.7,0,0,1-2.29-.13,16.66,16.66,0,0,1-2.08-.39,3.35,3.35,0,0,0-1,.78,1.8,1.8,0,0,0-.39,1.2,1.49,1.49,0,0,0,.31,1,1.86,1.86,0,0,0,.86.55,5.14,5.14,0,0,0,1.28.23q.72.06,1.5.06H1344a18.24,18.24,0,0,1,4.89.57,9.4,9.4,0,0,1,3.33,1.61,6.07,6.07,0,0,1,1.87,2.44A8.25,8.25,0,0,1,1354.7,219.93Zm-7.28.57a1.91,1.91,0,0,0-.83-1.63,5.84,5.84,0,0,0-3.17-.6h-9.21a2.77,2.77,0,0,0-1,2.18,2.48,2.48,0,0,0,1.07,2.06,6.19,6.19,0,0,0,3.61.8h4.53a7.61,7.61,0,0,0,3.84-.73A2.29,2.29,0,0,0,1347.42,220.5ZM1339.67,204a4.48,4.48,0,0,0,3.41-1.14,4.13,4.13,0,0,0,1.06-2.92v-1.24a4.09,4.09,0,0,0-1.06-2.91,4.45,4.45,0,0,0-3.41-1.15,4.3,4.3,0,0,0-3.33,1.15,4.17,4.17,0,0,0-1,2.91V200a4.21,4.21,0,0,0,1,2.92A4.33,4.33,0,0,0,1339.67,204Z"/><path d="M1371.91,217.85q-6.77,0-10.24-3.74t-3.49-10.19a18.09,18.09,0,0,1,.91-5.9,12.77,12.77,0,0,1,2.6-4.48,11.16,11.16,0,0,1,4.11-2.81,14.61,14.61,0,0,1,5.44-1,14.36,14.36,0,0,1,5.4,1,11.45,11.45,0,0,1,4.06,2.73,12.13,12.13,0,0,1,2.57,4.29,16.54,16.54,0,0,1,.91,5.65v2.29h-18.35v.46a5.63,5.63,0,0,0,1.61,4.19,6.45,6.45,0,0,0,4.73,1.58,8.75,8.75,0,0,0,4.11-.9,9.87,9.87,0,0,0,3-2.42l4.16,4.52a13.06,13.06,0,0,1-4.36,3.33A16,16,0,0,1,1371.91,217.85Zm-.62-22.56a5.28,5.28,0,0,0-4,1.53,5.68,5.68,0,0,0-1.48,4.13v.42h10.81V201a5.79,5.79,0,0,0-1.43-4.16A5.15,5.15,0,0,0,1371.29,195.29Z"/><path d="M1402.07,217.85a20.44,20.44,0,0,1-7.77-1.35,11,11,0,0,1-5-3.69l4.32-4a11.22,11.22,0,0,0,3.66,2.67,11.35,11.35,0,0,0,4.81,1,7.6,7.6,0,0,0,3.59-.7,2.29,2.29,0,0,0,1.3-2.16,1.6,1.6,0,0,0-.88-1.58,9,9,0,0,0-2.45-.7l-4.31-.68a17.06,17.06,0,0,1-3.38-.81,8.63,8.63,0,0,1-2.71-1.48,6.82,6.82,0,0,1-1.82-2.29,7.25,7.25,0,0,1-.67-3.27,7.75,7.75,0,0,1,3.22-6.6q3.23-2.4,9-2.4a18.85,18.85,0,0,1,6.73,1.07,10.61,10.61,0,0,1,4.45,3l-3.85,4.37a9.76,9.76,0,0,0-3.07-2.19,10.62,10.62,0,0,0-4.52-.88q-4.47,0-4.47,2.7a1.65,1.65,0,0,0,.88,1.64,8.94,8.94,0,0,0,2.45.71l4.26.67a17.23,17.23,0,0,1,3.38.81,9,9,0,0,1,2.73,1.48,6.73,6.73,0,0,1,1.84,2.29,7.12,7.12,0,0,1,.68,3.27,7.88,7.88,0,0,1-3.25,6.66C1409.13,217,1406.06,217.85,1402.07,217.85Z"/><path d="M1435.66,217.23q-4.15,0-6.19-2.18a7.82,7.82,0,0,1-2-5.55V196.43h-7.28v-6h4.73a3.54,3.54,0,0,0,2.44-.68,3.32,3.32,0,0,0,.73-2.49v-6.3h7.07v9.47h10.45v6h-10.45V211.2h10.45v6Z"/><path d="M1474.51,217.23a5.81,5.81,0,0,1-3.85-1.22,5.18,5.18,0,0,1-1.72-3.51h-.26a6.57,6.57,0,0,1-2.88,4,9.77,9.77,0,0,1-5.28,1.35,9.11,9.11,0,0,1-6.27-2.1,7.48,7.48,0,0,1-2.36-5.9,7,7,0,0,1,3.07-6.25q3.06-2,9-2h4.32v-1.35a5.23,5.23,0,0,0-1.12-3.62,5,5,0,0,0-3.77-1.22,7.33,7.33,0,0,0-4,.94,8.87,8.87,0,0,0-2.6,2.44l-4.21-3.75a10.14,10.14,0,0,1,4.23-3.77,16.33,16.33,0,0,1,7.41-1.48q5.52,0,8.61,2.52t3.09,7.62v11.76h3v5.56Zm-11.08-4.42a5.79,5.79,0,0,0,3.43-1,3.28,3.28,0,0,0,1.41-2.86v-3.22h-4.11c-3.16,0-4.73,1-4.73,3.17v1a2.39,2.39,0,0,0,1.09,2.13A5.14,5.14,0,0,0,1463.43,212.81Z"/><path d="M1484.23,211.2h6.19V196.43h-6.19v-6h13.88V198h.37a15.51,15.51,0,0,1,1-2.84,9.43,9.43,0,0,1,1.67-2.44,7.38,7.38,0,0,1,2.47-1.69,8.58,8.58,0,0,1,3.43-.62h2.55v7.07h-5.72a5.41,5.41,0,0,0-4.32,1.68,6.11,6.11,0,0,0-1.46,4.12v7.93H1507v6h-22.72Z"/><path d="M1529.26,217.23q-4.15,0-6.19-2.18a7.82,7.82,0,0,1-2-5.55V196.43h-7.28v-6h4.73a3.54,3.54,0,0,0,2.44-.68,3.32,3.32,0,0,0,.73-2.49v-6.3h7.07v9.47h10.45v6h-10.45V211.2h10.45v6Z"/><path d="M1575.54,217.23V190.4h6.19v3.95h.36a9.44,9.44,0,0,1,1.8-3.22,4.11,4.11,0,0,1,3.3-1.36q3.9,0,4.78,4.58h.32a9.33,9.33,0,0,1,.78-1.77,5.8,5.8,0,0,1,1.14-1.45,5,5,0,0,1,1.61-1,6.09,6.09,0,0,1,2.19-.37q5.61,0,5.61,8.27v19.19h-6.19V198.82a4,4,0,0,0-.65-2.63,2.12,2.12,0,0,0-1.69-.75,2.42,2.42,0,0,0-1.69.65,2.62,2.62,0,0,0-.7,2v19.14h-6.24V198.82a4.35,4.35,0,0,0-.6-2.63,2,2,0,0,0-1.63-.75,2.56,2.56,0,0,0-1.77.65,2.53,2.53,0,0,0-.73,2v19.14Z"/><path d="M1621.51,217.85q-6.77,0-10.24-3.74t-3.49-10.19a17.83,17.83,0,0,1,.91-5.9,12.62,12.62,0,0,1,2.6-4.48,11.16,11.16,0,0,1,4.11-2.81,14.59,14.59,0,0,1,5.43-1,14.41,14.41,0,0,1,5.41,1,11.45,11.45,0,0,1,4.06,2.73,12.27,12.27,0,0,1,2.57,4.29,16.54,16.54,0,0,1,.91,5.65v2.29h-18.35v.46a5.59,5.59,0,0,0,1.61,4.19,6.45,6.45,0,0,0,4.73,1.58,8.78,8.78,0,0,0,4.11-.9,9.87,9.87,0,0,0,3-2.42l4.16,4.52a13,13,0,0,1-4.37,3.33A16,16,0,0,1,1621.51,217.85Zm-.63-22.56a5.26,5.26,0,0,0-4,1.53,5.68,5.68,0,0,0-1.48,4.13v.42h10.81V201a5.84,5.84,0,0,0-1.43-4.16A5.16,5.16,0,0,0,1620.88,195.29Z"/><path d="M1654.06,217.23c-2.77,0-4.84-.73-6.19-2.18a7.83,7.83,0,0,1-2-5.55V196.43h-7.28v-6h4.74a3.56,3.56,0,0,0,2.44-.68,3.32,3.32,0,0,0,.73-2.49v-6.3h7.07v9.47H1664v6h-10.45V211.2H1664v6Z"/><path d="M1715.47,217.85a15.9,15.9,0,0,1-5.69-1,11.59,11.59,0,0,1-4.27-2.78,12.29,12.29,0,0,1-2.67-4.42,18.83,18.83,0,0,1,0-11.75,12.2,12.2,0,0,1,2.67-4.42,11.61,11.61,0,0,1,4.27-2.79,15.74,15.74,0,0,1,5.64-1,12.53,12.53,0,0,1,7.1,1.8,11.59,11.59,0,0,1,4.08,4.76l-5.93,3.22a7.78,7.78,0,0,0-1.9-2.6,4.89,4.89,0,0,0-3.35-1,5.3,5.3,0,0,0-4.08,1.53,5.89,5.89,0,0,0-1.43,4.19V206a5.84,5.84,0,0,0,1.43,4.18,6.44,6.44,0,0,0,7.69.5,8.8,8.8,0,0,0,2.16-2.71l5.83,3.33a11.81,11.81,0,0,1-4.24,4.76A13.37,13.37,0,0,1,1715.47,217.85Z"/><path d="M1745.58,217.85a15.59,15.59,0,0,1-5.62-1,11.51,11.51,0,0,1-4.23-2.78,12.17,12.17,0,0,1-2.68-4.42,18.83,18.83,0,0,1,0-11.75,12.09,12.09,0,0,1,2.68-4.42,11.53,11.53,0,0,1,4.23-2.79,16.93,16.93,0,0,1,11.24,0,11.53,11.53,0,0,1,4.23,2.79,12.09,12.09,0,0,1,2.68,4.42,18.83,18.83,0,0,1,0,11.75,12.17,12.17,0,0,1-2.68,4.42,11.51,11.51,0,0,1-4.23,2.78A15.59,15.59,0,0,1,1745.58,217.85Zm0-5.72a5.18,5.18,0,0,0,4.06-1.61,6.59,6.59,0,0,0,1.45-4.58v-4.26a6.62,6.62,0,0,0-1.45-4.58,5.92,5.92,0,0,0-8.12,0,6.62,6.62,0,0,0-1.45,4.58v4.26a6.59,6.59,0,0,0,1.45,4.58A5.18,5.18,0,0,0,1745.58,212.13Z"/><path d="M1765,211.2h6.19V196.43H1765v-6h13.88V198h.37a15.51,15.51,0,0,1,1-2.84,9.39,9.39,0,0,1,1.66-2.44,7.48,7.48,0,0,1,2.47-1.69,8.63,8.63,0,0,1,3.44-.62h2.54v7.07h-5.72a5.4,5.4,0,0,0-4.31,1.68,6.11,6.11,0,0,0-1.46,4.12v7.93h8.84v6H1765Z"/><path d="M1808,217.85a15.59,15.59,0,0,1-5.62-1,11.63,11.63,0,0,1-4.24-2.78,12.29,12.29,0,0,1-2.67-4.42,18.83,18.83,0,0,1,0-11.75,12.2,12.2,0,0,1,2.67-4.42,11.66,11.66,0,0,1,4.24-2.79,16.93,16.93,0,0,1,11.24,0,11.53,11.53,0,0,1,4.23,2.79,12.22,12.22,0,0,1,2.68,4.42,18.83,18.83,0,0,1,0,11.75,12.31,12.31,0,0,1-2.68,4.42,11.51,11.51,0,0,1-4.23,2.78A15.59,15.59,0,0,1,1808,217.85Zm0-5.72a5.19,5.19,0,0,0,4.06-1.61,6.59,6.59,0,0,0,1.45-4.58v-4.26a6.62,6.62,0,0,0-1.45-4.58,5.92,5.92,0,0,0-8.12,0,6.62,6.62,0,0,0-1.45,4.58v4.26a6.59,6.59,0,0,0,1.45,4.58A5.18,5.18,0,0,0,1808,212.13Z"/><path d="M1827,217.23V190.4h7.7v4.89h.31a11.21,11.21,0,0,1,1.14-2.14,8,8,0,0,1,1.64-1.74,7.8,7.8,0,0,1,2.23-1.2,9,9,0,0,1,2.89-.44,9.49,9.49,0,0,1,3.54.65,7.36,7.36,0,0,1,2.75,2,9.51,9.51,0,0,1,1.8,3.17,13.26,13.26,0,0,1,.65,4.32v17.37h-7.7V200.9c0-3.46-1.51-5.2-4.52-5.2a6.54,6.54,0,0,0-1.75.24,4.49,4.49,0,0,0-1.53.72,3.68,3.68,0,0,0-1.07,1.22,3.73,3.73,0,0,0-.38,1.72v17.63Z"/><path d="M1880.1,217.23a5.82,5.82,0,0,1-3.85-1.22,5.13,5.13,0,0,1-1.71-3.51h-.26a6.58,6.58,0,0,1-2.89,4,9.74,9.74,0,0,1-5.27,1.35,9.09,9.09,0,0,1-6.27-2.1,7.49,7.49,0,0,1-2.37-5.9,7,7,0,0,1,3.07-6.25c2-1.35,5-2,9-2h4.31v-1.35a5.18,5.18,0,0,0-1.12-3.62,4.93,4.93,0,0,0-3.77-1.22,7.36,7.36,0,0,0-4,.94,9.12,9.12,0,0,0-2.6,2.44l-4.21-3.75a10.17,10.17,0,0,1,4.24-3.77,16.28,16.28,0,0,1,7.41-1.48q5.51,0,8.6,2.52t3.1,7.62v11.76h3v5.56ZM1869,212.81a5.81,5.81,0,0,0,3.43-1,3.29,3.29,0,0,0,1.4-2.86v-3.22h-4.11c-3.15,0-4.73,1-4.73,3.17v1a2.4,2.4,0,0,0,1.1,2.13A5.1,5.1,0,0,0,1869,212.81Z"/><path d="M1893.26,205.06v-7.38h16.64v7.38Z"/><path d="M1942.5,217.23a5.82,5.82,0,0,1-3.85-1.22,5.13,5.13,0,0,1-1.71-3.51h-.26a6.58,6.58,0,0,1-2.89,4,9.77,9.77,0,0,1-5.28,1.35,9.08,9.08,0,0,1-6.26-2.1,7.49,7.49,0,0,1-2.37-5.9,7,7,0,0,1,3.07-6.25c2-1.35,5-2,9-2h4.31v-1.35a5.18,5.18,0,0,0-1.12-3.62,4.93,4.93,0,0,0-3.77-1.22,7.36,7.36,0,0,0-3.95.94,9.12,9.12,0,0,0-2.6,2.44l-4.21-3.75a10.1,10.1,0,0,1,4.24-3.77,16.28,16.28,0,0,1,7.41-1.48q5.51,0,8.6,2.52t3.1,7.62v11.76h3v5.56Zm-11.07-4.42a5.81,5.81,0,0,0,3.43-1,3.29,3.29,0,0,0,1.4-2.86v-3.22h-4.11c-3.15,0-4.73,1-4.73,3.17v1a2.41,2.41,0,0,0,1.09,2.13A5.16,5.16,0,0,0,1931.43,212.81Z"/><path d="M1951.45,190.4h7.69v4.93h.37a10,10,0,0,1,2.86-4,7.64,7.64,0,0,1,5.09-1.58,9.89,9.89,0,0,1,4.08.83,8.45,8.45,0,0,1,3.18,2.55,13.06,13.06,0,0,1,2.08,4.37,26.75,26.75,0,0,1,0,12.58,13,13,0,0,1-2.08,4.37,8.26,8.26,0,0,1-3.18,2.55,9.73,9.73,0,0,1-4.08.83,7.73,7.73,0,0,1-5.09-1.54,9.78,9.78,0,0,1-2.86-4h-.37v15.34h-7.69Zm12.68,21.42a5.09,5.09,0,0,0,4-1.57,6.39,6.39,0,0,0,1.4-4.37v-4.13a6.37,6.37,0,0,0-1.4-4.37,5.09,5.09,0,0,0-4-1.57,6.17,6.17,0,0,0-3.51,1,3.45,3.45,0,0,0-1.48,3.1v7.85a3.46,3.46,0,0,0,1.48,3.1A6.25,6.25,0,0,0,1964.13,211.82Z"/><path d="M1982.65,190.4h7.69v4.93h.37a10,10,0,0,1,2.86-4,7.64,7.64,0,0,1,5.09-1.58,9.89,9.89,0,0,1,4.08.83,8.45,8.45,0,0,1,3.18,2.55,13.06,13.06,0,0,1,2.08,4.37,26.75,26.75,0,0,1,0,12.58,13,13,0,0,1-2.08,4.37,8.26,8.26,0,0,1-3.18,2.55,9.73,9.73,0,0,1-4.08.83,7.73,7.73,0,0,1-5.09-1.54,9.78,9.78,0,0,1-2.86-4h-.37v15.34h-7.69Zm12.68,21.42a5.09,5.09,0,0,0,4-1.57,6.39,6.39,0,0,0,1.4-4.37v-4.13a6.37,6.37,0,0,0-1.4-4.37,5.09,5.09,0,0,0-4-1.57,6.17,6.17,0,0,0-3.51,1,3.45,3.45,0,0,0-1.48,3.1v7.85a3.46,3.46,0,0,0,1.48,3.1A6.25,6.25,0,0,0,1995.33,211.82Z"/><path d="M2046.87,211.2h8.52V196.43h-8.52v-6h16.22v20.8h7.9v6h-24.12ZM2059.24,187c-1.73,0-2.94-.35-3.61-1.06a3.59,3.59,0,0,1-1-2.57v-1.51a3.56,3.56,0,0,1,1-2.6c.67-.7,1.88-1,3.61-1s2.94.34,3.62,1a3.59,3.59,0,0,1,1,2.6v1.51a3.62,3.62,0,0,1-1,2.57C2062.18,186.61,2061,187,2059.24,187Z"/><path d="M2076.56,217.23V190.4h7.69v4.89h.31a11.84,11.84,0,0,1,1.15-2.14,8,8,0,0,1,1.64-1.74,7.8,7.8,0,0,1,2.23-1.2,8.91,8.91,0,0,1,2.89-.44,9.4,9.4,0,0,1,3.53.65,7.31,7.31,0,0,1,2.76,2,9.49,9.49,0,0,1,1.79,3.17,13,13,0,0,1,.66,4.32v17.37h-7.7V200.9c0-3.46-1.51-5.2-4.53-5.2a6.41,6.41,0,0,0-1.74.24,4.49,4.49,0,0,0-1.53.72,3.68,3.68,0,0,0-1.07,1.22,3.61,3.61,0,0,0-.39,1.72v17.63Z"/><path d="M1117,279.63l-9.62-26.83h8.11l3.49,11.49,2.54,8.94h.42l2.55-8.94L1128,252.8h7.8l-9.62,26.83Z"/><path d="M1142.07,273.6h8.53V258.83h-8.53v-6h16.23v20.8h7.9v6h-24.13Zm12.38-24.24c-1.73,0-2.94-.35-3.61-1.06a3.59,3.59,0,0,1-1-2.57v-1.51a3.56,3.56,0,0,1,1-2.6c.67-.7,1.88-1,3.61-1s2.94.34,3.61,1a3.56,3.56,0,0,1,1,2.6v1.51a3.59,3.59,0,0,1-1,2.57C1157.39,249,1156.18,249.36,1154.45,249.36Z"/><path d="M1184.71,280.25q-6.75,0-10.24-3.74T1171,266.32a17.83,17.83,0,0,1,.91-5.9,12.47,12.47,0,0,1,2.6-4.48,11,11,0,0,1,4.1-2.81,14.68,14.68,0,0,1,5.44-1,14.45,14.45,0,0,1,5.41,1,11.5,11.5,0,0,1,4,2.73,12.29,12.29,0,0,1,2.58,4.29,16.78,16.78,0,0,1,.91,5.65v2.28h-18.36v.47a5.63,5.63,0,0,0,1.61,4.19,6.47,6.47,0,0,0,4.73,1.58,8.72,8.72,0,0,0,4.11-.9,9.91,9.91,0,0,0,3-2.42l4.16,4.52a13.1,13.1,0,0,1-4.37,3.33A16,16,0,0,1,1184.71,280.25Zm-.62-22.56a5.3,5.3,0,0,0-4,1.53,5.68,5.68,0,0,0-1.48,4.13v.42h10.82v-.42a5.82,5.82,0,0,0-1.43-4.16A5.19,5.19,0,0,0,1184.09,257.69Z"/><path d="M1203.43,273.6h6.19V258.83h-6.19v-6h13.89v7.59h.36a15.51,15.51,0,0,1,1-2.84,9.43,9.43,0,0,1,1.67-2.44,7.48,7.48,0,0,1,2.47-1.69,8.58,8.58,0,0,1,3.43-.62h2.55v7.07h-5.72a5.41,5.41,0,0,0-4.32,1.68,6.1,6.1,0,0,0-1.45,4.12v7.93h8.84v6h-22.73Z"/><path d="M1265.83,273.6H1272V258.83h-6.19v-6h13.89v7.59h.36a15.51,15.51,0,0,1,1-2.84,9.43,9.43,0,0,1,1.67-2.44,7.38,7.38,0,0,1,2.47-1.69,8.58,8.58,0,0,1,3.43-.62h2.55v7.07h-5.72a5.41,5.41,0,0,0-4.32,1.68,6.1,6.1,0,0,0-1.45,4.12v7.93h8.84v6h-22.73Z"/><path d="M1309.51,280.25q-6.75,0-10.24-3.74t-3.49-10.19a18.09,18.09,0,0,1,.91-5.9,12.77,12.77,0,0,1,2.6-4.48,11.16,11.16,0,0,1,4.11-2.81,14.65,14.65,0,0,1,5.44-1,14.36,14.36,0,0,1,5.4,1,11.45,11.45,0,0,1,4.06,2.73,12.13,12.13,0,0,1,2.57,4.29,16.54,16.54,0,0,1,.91,5.65v2.28h-18.35v.47a5.59,5.59,0,0,0,1.61,4.19,6.45,6.45,0,0,0,4.73,1.58,8.72,8.72,0,0,0,4.11-.9,9.87,9.87,0,0,0,3-2.42l4.16,4.52a13.06,13.06,0,0,1-4.36,3.33A16,16,0,0,1,1309.51,280.25Zm-.62-22.56a5.28,5.28,0,0,0-4,1.53,5.68,5.68,0,0,0-1.48,4.13v.42h10.81v-.42a5.78,5.78,0,0,0-1.43-4.16A5.15,5.15,0,0,0,1308.89,257.69Z"/><path d="M1354.7,282.33a6.76,6.76,0,0,1-3.59,6.3q-3.58,2-11.28,2a38.08,38.08,0,0,1-6.35-.44,12.69,12.69,0,0,1-4-1.27,5,5,0,0,1-2.08-2,5.28,5.28,0,0,1-.6-2.5,4.32,4.32,0,0,1,1.35-3.45,9.29,9.29,0,0,1,3.8-1.8v-.31a6.71,6.71,0,0,1-2.73-1.48,3.57,3.57,0,0,1-1-2.73,3.3,3.3,0,0,1,1.33-2.91,10,10,0,0,1,3.51-1.46V270a8.71,8.71,0,0,1-3.72-3.23,9.19,9.19,0,0,1-1.33-5,9.61,9.61,0,0,1,.84-4.13,7.88,7.88,0,0,1,2.36-3,10.7,10.7,0,0,1,3.67-1.82,16.82,16.82,0,0,1,4.78-.63,18.19,18.19,0,0,1,4.73.58v-1.46a3.44,3.44,0,0,1,1.1-2.6,4.19,4.19,0,0,1,3-1h4.73v5.62h-6.44v.46a8.55,8.55,0,0,1,3.4,3.15,9.09,9.09,0,0,1,1.22,4.86,9.49,9.49,0,0,1-.83,4.11,8.15,8.15,0,0,1-2.39,3,11,11,0,0,1-3.72,1.85,17.52,17.52,0,0,1-4.81.62,18.7,18.7,0,0,1-2.29-.13,16.66,16.66,0,0,1-2.08-.39,3.35,3.35,0,0,0-1,.78,1.8,1.8,0,0,0-.39,1.2,1.49,1.49,0,0,0,.31,1,1.86,1.86,0,0,0,.86.55,5.14,5.14,0,0,0,1.28.23c.48,0,1,.05,1.5.05H1344a18.21,18.21,0,0,1,4.89.58,9.4,9.4,0,0,1,3.33,1.61,6.07,6.07,0,0,1,1.87,2.44A8.25,8.25,0,0,1,1354.7,282.33Zm-7.28.57a1.91,1.91,0,0,0-.83-1.63,5.84,5.84,0,0,0-3.17-.6h-9.21a2.77,2.77,0,0,0-1,2.18,2.48,2.48,0,0,0,1.07,2.06,6.19,6.19,0,0,0,3.61.8h4.53a7.61,7.61,0,0,0,3.84-.73A2.29,2.29,0,0,0,1347.42,282.9Zm-7.75-16.48a4.48,4.48,0,0,0,3.41-1.14,4.13,4.13,0,0,0,1.06-2.92v-1.24a4.09,4.09,0,0,0-1.06-2.91,4.45,4.45,0,0,0-3.41-1.15,4.3,4.3,0,0,0-3.33,1.15,4.17,4.17,0,0,0-1,2.91v1.24a4.21,4.21,0,0,0,1,2.92A4.33,4.33,0,0,0,1339.67,266.42Z"/><path d="M1360.47,273.6H1369V258.83h-8.53v-6h16.23v20.8h7.9v6h-24.13Zm12.38-24.24c-1.74,0-2.94-.35-3.62-1.06a3.62,3.62,0,0,1-1-2.57v-1.51a3.59,3.59,0,0,1,1-2.6c.68-.7,1.88-1,3.62-1s2.94.34,3.61,1a3.56,3.56,0,0,1,1,2.6v1.51a3.59,3.59,0,0,1-1,2.57C1375.79,249,1374.58,249.36,1372.85,249.36Z"/><path d="M1402.38,280.25a15.5,15.5,0,0,1-5.61-1,11.47,11.47,0,0,1-4.24-2.78,12.31,12.31,0,0,1-2.68-4.42,19,19,0,0,1,0-11.75,12.22,12.22,0,0,1,2.68-4.42,11.49,11.49,0,0,1,4.24-2.79,16.9,16.9,0,0,1,11.23,0,11.57,11.57,0,0,1,4.24,2.79,12.36,12.36,0,0,1,2.68,4.42,19,19,0,0,1,0,11.75,12.45,12.45,0,0,1-2.68,4.42,11.55,11.55,0,0,1-4.24,2.78A15.59,15.59,0,0,1,1402.38,280.25Zm0-5.72a5.17,5.17,0,0,0,4.06-1.61,6.59,6.59,0,0,0,1.45-4.58v-4.26a6.61,6.61,0,0,0-1.45-4.58,5.91,5.91,0,0,0-8.11,0,6.61,6.61,0,0,0-1.46,4.58v4.26a6.59,6.59,0,0,0,1.46,4.58A5.16,5.16,0,0,0,1402.38,274.53Z"/><path d="M1430.15,258.1v-17H1437v17Z"/><path d="M1464.47,280.25a20.44,20.44,0,0,1-7.77-1.35,11,11,0,0,1-5-3.69l4.32-4a11.22,11.22,0,0,0,3.66,2.67,11.51,11.51,0,0,0,4.81,1,7.6,7.6,0,0,0,3.59-.7,2.29,2.29,0,0,0,1.3-2.16,1.6,1.6,0,0,0-.88-1.58,8.63,8.63,0,0,0-2.45-.7l-4.31-.68a17.06,17.06,0,0,1-3.38-.81,8.74,8.74,0,0,1-2.71-1.48,6.82,6.82,0,0,1-1.82-2.29,7.25,7.25,0,0,1-.67-3.27,7.78,7.78,0,0,1,3.22-6.61q3.22-2.38,9-2.39a18.85,18.85,0,0,1,6.73,1.07,10.61,10.61,0,0,1,4.45,3l-3.85,4.37a9.76,9.76,0,0,0-3.07-2.19,10.65,10.65,0,0,0-4.52-.88q-4.47,0-4.47,2.7a1.65,1.65,0,0,0,.88,1.64,8.86,8.86,0,0,0,2.44.71l4.27.67a17.23,17.23,0,0,1,3.38.81,9,9,0,0,1,2.73,1.48,6.73,6.73,0,0,1,1.84,2.29,7.25,7.25,0,0,1,.68,3.27,7.88,7.88,0,0,1-3.25,6.66C1471.53,279.44,1468.46,280.25,1464.47,280.25Z"/><rect class="cls-2" x="1106" y="337" width="481.35" height="60" transform="translate(2693.35 734) rotate(180)"/><rect class="cls-2" x="1621.03" y="337" width="284.8" height="60" transform="translate(3526.86 734) rotate(180)"/><rect class="cls-2" x="1106" y="434" width="339" height="60" transform="translate(2551 928) rotate(180)"/><rect class="cls-2" x="1482" y="434" width="423.83" height="60" transform="translate(3387.83 928) rotate(180)"/><rect class="cls-2" x="1566.83" y="531" width="339" height="60"/><rect class="cls-2" x="1106" y="531" width="423.83" height="60"/><rect class="cls-3" x="1937" y="337" width="310.63" height="254" transform="translate(4184.63 928) rotate(180)"/></g><g id="Layer_7" data-name="Layer 7"><rect class="cls-4" x="1318" y="635" width="828" height="574"/><path d="M1380.84,695.63h12.25q5.15,0,7.87,2.5a8.76,8.76,0,0,1,2.73,6.8,7.28,7.28,0,0,1-1.48,4.78,8.32,8.32,0,0,1-4.22,2.57v.3a9.62,9.62,0,0,1,5,2.8,8.08,8.08,0,0,1,1.78,5.55,9.12,9.12,0,0,1-2.78,7c-1.85,1.74-4.44,2.6-7.77,2.6h-13.4Zm10.15,14.8a6.68,6.68,0,0,0,3.85-.87,3.7,3.7,0,0,0,1.2-3.18v-1.5a3.62,3.62,0,0,0-1.2-3.15,6.86,6.86,0,0,0-3.85-.85h-2.85v9.55Zm1,14.85a6.86,6.86,0,0,0,4-.9,3.82,3.82,0,0,0,1.25-3.3v-1.45a3.82,3.82,0,0,0-1.25-3.3,6.86,6.86,0,0,0-4-.9h-3.8v9.85Z"/><path d="M1410.69,724.73h6v-14.2h-6v-5.8H1424V712h.35a14.24,14.24,0,0,1,1-2.72A8.8,8.8,0,0,1,1427,707a7,7,0,0,1,2.38-1.63,8.31,8.31,0,0,1,3.3-.6h2.45v6.8h-5.5a5.17,5.17,0,0,0-4.15,1.62,5.81,5.81,0,0,0-1.4,4v7.62h8.5v5.8h-21.85Z"/><path d="M1441.69,724.73h8.19v-14.2h-8.19v-5.8h15.6v20h7.59v5.8h-23.19Zm11.9-23.3a4.73,4.73,0,0,1-3.48-1,3.48,3.48,0,0,1-1-2.48v-1.45a3.45,3.45,0,0,1,1-2.5,6.54,6.54,0,0,1,7,0,3.45,3.45,0,0,1,1,2.5v1.45a3.48,3.48,0,0,1-1,2.48A4.72,4.72,0,0,1,1453.59,701.43Z"/><path d="M1484,730.53c-2.66,0-4.65-.7-5.94-2.09a7.5,7.5,0,0,1-2-5.34V710.53h-7v-5.8h4.55a3.42,3.42,0,0,0,2.35-.65,3.2,3.2,0,0,0,.71-2.4v-6h6.79v9.1h10.06v5.8h-10.06v14.2h10.06v5.8Z"/><path d="M1514,730.53c-2.66,0-4.65-.7-6-2.09a7.54,7.54,0,0,1-2-5.34V710.53h-7v-5.8h4.55a3.42,3.42,0,0,0,2.35-.65,3.2,3.2,0,0,0,.7-2.4v-6h6.8v9.1h10v5.8h-10v14.2h10v5.8Z"/><path d="M1542.68,731.13q-6.5,0-9.85-3.6t-3.35-9.8a17.3,17.3,0,0,1,.88-5.67,12.1,12.1,0,0,1,2.5-4.3,10.39,10.39,0,0,1,4-2.7,14,14,0,0,1,5.22-.93,13.73,13.73,0,0,1,5.2.93,10.65,10.65,0,0,1,3.9,2.62,11.62,11.62,0,0,1,2.48,4.13,15.92,15.92,0,0,1,.87,5.42v2.2h-17.65v.45a5.42,5.42,0,0,0,1.55,4,6.27,6.27,0,0,0,4.55,1.52,8.35,8.35,0,0,0,4-.87,9.42,9.42,0,0,0,2.85-2.33l4,4.35a12.53,12.53,0,0,1-4.2,3.2A15.27,15.27,0,0,1,1542.68,731.13Zm-.6-21.7a5,5,0,0,0-3.82,1.48,5.46,5.46,0,0,0-1.43,4v.4h10.4v-.4a5.57,5.57,0,0,0-1.37-4A5,5,0,0,0,1542.08,709.43Z"/><path d="M1560.23,730.53v-25.8h7.4v4.7h.3a11.18,11.18,0,0,1,1.1-2,7.58,7.58,0,0,1,1.58-1.67,7,7,0,0,1,2.15-1.15,8.22,8.22,0,0,1,2.77-.43,8.91,8.91,0,0,1,3.4.63,6.82,6.82,0,0,1,2.65,1.87,9,9,0,0,1,1.73,3,12.8,12.8,0,0,1,.62,4.15v16.7h-7.4v-15.7q0-5-4.35-5a6.34,6.34,0,0,0-1.67.23,4.49,4.49,0,0,0-1.48.7,3.38,3.38,0,0,0-1,1.17,3.46,3.46,0,0,0-.38,1.65v16.95Z"/><path d="M1619.93,693.53h7.4v16h.35a9.8,9.8,0,0,1,2.75-3.84,7.44,7.44,0,0,1,4.9-1.51,9.52,9.52,0,0,1,3.93.8,8,8,0,0,1,3,2.45,12.44,12.44,0,0,1,2,4.2,25.78,25.78,0,0,1,0,12.1,12.44,12.44,0,0,1-2,4.2,8,8,0,0,1-3,2.45,9.52,9.52,0,0,1-3.93.8,7.48,7.48,0,0,1-4.9-1.49,9.49,9.49,0,0,1-2.75-3.85h-.35v4.74h-7.4Zm12.2,31.8a4.88,4.88,0,0,0,3.85-1.51,6.09,6.09,0,0,0,1.35-4.2v-4a6.08,6.08,0,0,0-1.35-4.19,4.89,4.89,0,0,0-3.85-1.52,6,6,0,0,0-3.37,1,3.31,3.31,0,0,0-1.43,3v7.55a3.33,3.33,0,0,0,1.43,3A6,6,0,0,0,1632.13,725.33Z"/><path d="M1662.68,731.13q-6.5,0-9.85-3.6t-3.35-9.8a17,17,0,0,1,.88-5.67,12,12,0,0,1,2.5-4.3,10.39,10.39,0,0,1,4-2.7,14,14,0,0,1,5.22-.93,13.77,13.77,0,0,1,5.2.93,10.82,10.82,0,0,1,3.9,2.62,11.77,11.77,0,0,1,2.48,4.13,15.92,15.92,0,0,1,.87,5.42v2.2h-17.65v.45a5.42,5.42,0,0,0,1.55,4,6.25,6.25,0,0,0,4.55,1.52,8.38,8.38,0,0,0,4-.87,9.42,9.42,0,0,0,2.85-2.33l4,4.35a12.53,12.53,0,0,1-4.2,3.2A15.27,15.27,0,0,1,1662.68,731.13Zm-.6-21.7a5,5,0,0,0-3.82,1.48,5.46,5.46,0,0,0-1.43,4v.4h10.4v-.4a5.61,5.61,0,0,0-1.37-4A5,5,0,0,0,1662.08,709.43Z"/><path d="M1706.13,733.13a6.48,6.48,0,0,1-3.45,6q-3.45,2-10.85,2a36.42,36.42,0,0,1-6.1-.42,12.5,12.5,0,0,1-3.82-1.23,4.79,4.79,0,0,1-2-1.9,5,5,0,0,1-.58-2.4,4.13,4.13,0,0,1,1.3-3.32,8.87,8.87,0,0,1,3.65-1.73v-.3a6.49,6.49,0,0,1-2.62-1.42,3.45,3.45,0,0,1-1-2.63A3.19,3.19,0,0,1,1682,723a9.86,9.86,0,0,1,3.37-1.4v-.3a8.46,8.46,0,0,1-3.57-3.1,8.83,8.83,0,0,1-1.28-4.85,9.38,9.38,0,0,1,.8-4,7.65,7.65,0,0,1,2.28-2.88,10.28,10.28,0,0,1,3.52-1.75,16.38,16.38,0,0,1,4.6-.6,17.79,17.79,0,0,1,4.55.55v-1.4a3.31,3.31,0,0,1,1-2.5,4.07,4.07,0,0,1,2.9-1h4.55v5.4h-6.2v.45a8.28,8.28,0,0,1,3.28,3,8.82,8.82,0,0,1,1.17,4.67,9.22,9.22,0,0,1-.8,3.95,7.84,7.84,0,0,1-2.3,2.88,10.48,10.48,0,0,1-3.57,1.77,16.7,16.7,0,0,1-4.63.6,19.34,19.34,0,0,1-2.2-.12,15.08,15.08,0,0,1-2-.38,3.09,3.09,0,0,0-.92.75,1.73,1.73,0,0,0-.38,1.15,1.41,1.41,0,0,0,.3,1,1.81,1.81,0,0,0,.83.53,5.12,5.12,0,0,0,1.22.22c.47,0,1,0,1.45,0h5.9a17.78,17.78,0,0,1,4.7.55,9.1,9.1,0,0,1,3.2,1.55,5.87,5.87,0,0,1,1.8,2.35A7.82,7.82,0,0,1,1706.13,733.13Zm-7,.55a1.83,1.83,0,0,0-.8-1.57,5.55,5.55,0,0,0-3-.58h-8.85a2.65,2.65,0,0,0-1,2.1,2.38,2.38,0,0,0,1,2,6,6,0,0,0,3.47.77h4.35a7.37,7.37,0,0,0,3.7-.7A2.21,2.21,0,0,0,1699.13,733.68Zm-7.45-15.85a4.33,4.33,0,0,0,3.28-1.1,4,4,0,0,0,1-2.8v-1.2a4,4,0,0,0-1-2.8,4.33,4.33,0,0,0-3.28-1.1,4.15,4.15,0,0,0-3.2,1.1,4,4,0,0,0-1,2.8v1.2a4,4,0,0,0,1,2.8A4.15,4.15,0,0,0,1691.68,717.83Z"/><path d="M1711.68,724.73h8.2v-14.2h-8.2v-5.8h15.6v20h7.6v5.8h-23.2Zm11.9-23.3a4.7,4.7,0,0,1-3.47-1,3.48,3.48,0,0,1-1-2.48v-1.45a3.45,3.45,0,0,1,1-2.5,6.54,6.54,0,0,1,7,0,3.44,3.44,0,0,1,1,2.5v1.45a3.47,3.47,0,0,1-1,2.48A4.73,4.73,0,0,1,1723.58,701.43Z"/><path d="M1740.23,730.53v-25.8h7.4v4.7h.3a11.18,11.18,0,0,1,1.1-2,7.35,7.35,0,0,1,1.58-1.67,7,7,0,0,1,2.15-1.15,8.22,8.22,0,0,1,2.77-.43,9,9,0,0,1,3.4.63,6.89,6.89,0,0,1,2.65,1.87,9.14,9.14,0,0,1,1.73,3,12.8,12.8,0,0,1,.62,4.15v16.7h-7.4v-15.7q0-5-4.35-5a6.29,6.29,0,0,0-1.67.23,4.4,4.4,0,0,0-1.48.7,3.38,3.38,0,0,0-1,1.17,3.46,3.46,0,0,0-.38,1.65v16.95Z"/><path d="M1770.23,730.53v-25.8h7.4v4.7h.3a11.18,11.18,0,0,1,1.1-2,7.35,7.35,0,0,1,1.58-1.67,7.08,7.08,0,0,1,2.14-1.15,8.32,8.32,0,0,1,2.78-.43,9,9,0,0,1,3.4.63,6.89,6.89,0,0,1,2.65,1.87,9,9,0,0,1,1.72,3,12.53,12.53,0,0,1,.63,4.15v16.7h-7.4v-15.7q0-5-4.35-5a6.36,6.36,0,0,0-1.68.23,4.44,4.44,0,0,0-1.47.7,3.41,3.41,0,0,0-1,1.17,3.46,3.46,0,0,0-.37,1.65v16.95Z"/><path d="M1812.68,731.13q-6.5,0-9.85-3.6t-3.35-9.8a17.31,17.31,0,0,1,.87-5.67,12.25,12.25,0,0,1,2.5-4.3,10.47,10.47,0,0,1,4-2.7,14,14,0,0,1,5.23-.93,13.77,13.77,0,0,1,5.2.93,10.82,10.82,0,0,1,3.9,2.62,11.6,11.6,0,0,1,2.47,4.13,15.68,15.68,0,0,1,.88,5.42v2.2h-17.65v.45a5.42,5.42,0,0,0,1.55,4,6.25,6.25,0,0,0,4.55,1.52,8.38,8.38,0,0,0,4-.87,9.42,9.42,0,0,0,2.85-2.33l4,4.35a12.53,12.53,0,0,1-4.2,3.2A15.27,15.27,0,0,1,1812.68,731.13Zm-.6-21.7a5.08,5.08,0,0,0-3.83,1.48,5.45,5.45,0,0,0-1.42,4v.4h10.4v-.4a5.57,5.57,0,0,0-1.38-4A5,5,0,0,0,1812.08,709.43Z"/><path d="M1830.23,730.53v-25.8h7.4v4.7h.3a11.18,11.18,0,0,1,1.1-2,7.53,7.53,0,0,1,1.57-1.67,7.26,7.26,0,0,1,2.15-1.15,8.32,8.32,0,0,1,2.78-.43,9,9,0,0,1,3.4.63,6.89,6.89,0,0,1,2.65,1.87,9,9,0,0,1,1.72,3,12.53,12.53,0,0,1,.63,4.15v16.7h-7.4v-15.7q0-5-4.35-5a6.36,6.36,0,0,0-1.68.23,4.35,4.35,0,0,0-1.47.7,3.41,3.41,0,0,0-1,1.17,3.46,3.46,0,0,0-.37,1.65v16.95Z"/><path d="M1888.48,730.53v-25.8h6v3.8h.35a9.07,9.07,0,0,1,1.72-3.1,4,4,0,0,1,3.18-1.3q3.75,0,4.6,4.4h.3a10,10,0,0,1,.75-1.7,5.59,5.59,0,0,1,1.1-1.4,4.75,4.75,0,0,1,1.55-.95,5.85,5.85,0,0,1,2.1-.35q5.4,0,5.4,8v18.45h-6v-17.7a3.86,3.86,0,0,0-.63-2.52,2,2,0,0,0-1.62-.73,2.3,2.3,0,0,0-1.63.63,2.48,2.48,0,0,0-.67,1.92v18.4h-6v-17.7a4.09,4.09,0,0,0-.58-2.52,1.88,1.88,0,0,0-1.57-.73,2.3,2.3,0,0,0-2.4,2.55v18.4Z"/><path d="M1932.68,731.13q-6.51,0-9.85-3.6t-3.35-9.8a17.31,17.31,0,0,1,.87-5.67,12.25,12.25,0,0,1,2.5-4.3,10.47,10.47,0,0,1,4-2.7,14,14,0,0,1,5.23-.93,13.81,13.81,0,0,1,5.2.93,10.82,10.82,0,0,1,3.9,2.62,11.75,11.75,0,0,1,2.47,4.13,15.68,15.68,0,0,1,.88,5.42v2.2h-17.65v.45a5.38,5.38,0,0,0,1.55,4,6.25,6.25,0,0,0,4.55,1.52,8.38,8.38,0,0,0,4-.87,9.42,9.42,0,0,0,2.85-2.33l4,4.35a12.53,12.53,0,0,1-4.2,3.2A15.3,15.3,0,0,1,1932.68,731.13Zm-.6-21.7a5.06,5.06,0,0,0-3.83,1.48,5.45,5.45,0,0,0-1.42,4v.4h10.4v-.4a5.57,5.57,0,0,0-1.38-4A5,5,0,0,0,1932.08,709.43Z"/><path d="M1964,730.53q-4,0-6-2.09a7.54,7.54,0,0,1-2-5.34V710.53h-7v-5.8h4.55a3.44,3.44,0,0,0,2.35-.65,3.24,3.24,0,0,0,.7-2.4v-6h6.8v9.1h10v5.8h-10v14.2h10v5.8Z"/><path d="M1392.69,791.13q-6.51,0-9.85-3.6t-3.35-9.8a17.31,17.31,0,0,1,.87-5.67,12.1,12.1,0,0,1,2.5-4.3,10.39,10.39,0,0,1,4-2.7,14,14,0,0,1,5.23-.93,13.81,13.81,0,0,1,5.2.93,10.82,10.82,0,0,1,3.9,2.62,11.75,11.75,0,0,1,2.47,4.13,15.92,15.92,0,0,1,.88,5.42v2.2h-17.65v.45a5.38,5.38,0,0,0,1.55,4,6.25,6.25,0,0,0,4.55,1.52,8.38,8.38,0,0,0,4-.87,9.42,9.42,0,0,0,2.85-2.33l4,4.35a12.53,12.53,0,0,1-4.2,3.2A15.3,15.3,0,0,1,1392.69,791.13Zm-.6-21.7a5.06,5.06,0,0,0-3.83,1.48,5.45,5.45,0,0,0-1.42,4v.4h10.4v-.4a5.57,5.57,0,0,0-1.38-4A5,5,0,0,0,1392.09,769.43Z"/><path d="M1411.69,784.73h8.2v-14.2h-8.2v-5.8h15.6v20h7.6v5.8h-23.2Zm11.9-23.3a4.73,4.73,0,0,1-3.48-1,3.47,3.47,0,0,1-1-2.48v-1.45a3.44,3.44,0,0,1,1-2.5,6.54,6.54,0,0,1,7,0,3.45,3.45,0,0,1,1,2.5v1.45a3.48,3.48,0,0,1-1,2.48A4.72,4.72,0,0,1,1423.59,761.43Z"/><path d="M1466.13,793.13a6.47,6.47,0,0,1-3.44,6q-3.46,2-10.85,2a36.42,36.42,0,0,1-6.1-.42,12.48,12.48,0,0,1-3.83-1.23,4.79,4.79,0,0,1-2-1.9,5.12,5.12,0,0,1-.57-2.4,4.16,4.16,0,0,1,1.29-3.32,8.92,8.92,0,0,1,3.66-1.73v-.3a6.53,6.53,0,0,1-2.63-1.42,3.45,3.45,0,0,1-1-2.63A3.19,3.19,0,0,1,1442,783a9.92,9.92,0,0,1,3.38-1.4v-.3a8.42,8.42,0,0,1-3.58-3.1,8.83,8.83,0,0,1-1.27-4.85,9.23,9.23,0,0,1,.8-4,7.73,7.73,0,0,1,2.27-2.88,10.33,10.33,0,0,1,3.53-1.75,16.33,16.33,0,0,1,4.6-.6,17.79,17.79,0,0,1,4.55.55v-1.4a3.31,3.31,0,0,1,1-2.5,4.05,4.05,0,0,1,2.9-1h4.55v5.4h-6.2v.45a8.18,8.18,0,0,1,3.27,3,8.82,8.82,0,0,1,1.18,4.67,9.22,9.22,0,0,1-.8,3.95,8,8,0,0,1-2.31,2.88,10.48,10.48,0,0,1-3.57,1.77,16.63,16.63,0,0,1-4.62.6,19.34,19.34,0,0,1-2.2-.12,15.08,15.08,0,0,1-2-.38,3.13,3.13,0,0,0-.93.75,1.73,1.73,0,0,0-.37,1.15,1.41,1.41,0,0,0,.3,1,1.77,1.77,0,0,0,.82.53,5.21,5.21,0,0,0,1.23.22c.46,0,1,0,1.45,0h5.89a17.81,17.81,0,0,1,4.71.55,9.27,9.27,0,0,1,3.2,1.55,5.87,5.87,0,0,1,1.8,2.35A8,8,0,0,1,1466.13,793.13Zm-7,.55a1.82,1.82,0,0,0-.79-1.57,5.57,5.57,0,0,0-3-.58h-8.85a2.65,2.65,0,0,0-1,2.1,2.39,2.39,0,0,0,1,2,6,6,0,0,0,3.48.77h4.35a7.37,7.37,0,0,0,3.7-.7A2.22,2.22,0,0,0,1459.13,793.68Zm-7.44-15.85a4.29,4.29,0,0,0,3.27-1.1,4,4,0,0,0,1-2.8v-1.2a4,4,0,0,0-1-2.8,4.29,4.29,0,0,0-3.27-1.1,4.13,4.13,0,0,0-3.2,1.1,4,4,0,0,0-1,2.8v1.2a4,4,0,0,0,1,2.8A4.13,4.13,0,0,0,1451.69,777.83Z"/><path d="M1482.69,791.13q-6.51,0-9.86-3.6t-3.35-9.8a17.3,17.3,0,0,1,.88-5.67,12.1,12.1,0,0,1,2.5-4.3,10.39,10.39,0,0,1,4-2.7,14,14,0,0,1,5.23-.93,13.72,13.72,0,0,1,5.19.93,10.65,10.65,0,0,1,3.9,2.62,11.62,11.62,0,0,1,2.48,4.13,15.92,15.92,0,0,1,.87,5.42v2.2h-17.65v.45a5.42,5.42,0,0,0,1.55,4,6.29,6.29,0,0,0,4.56,1.52,8.31,8.31,0,0,0,3.94-.87,9.3,9.3,0,0,0,2.85-2.33l4,4.35a12.58,12.58,0,0,1-4.19,3.2A15.33,15.33,0,0,1,1482.69,791.13Zm-.61-21.7a5,5,0,0,0-3.82,1.48,5.46,5.46,0,0,0-1.43,4v.4h10.4v-.4a5.57,5.57,0,0,0-1.37-4A5,5,0,0,0,1482.08,769.43Z"/><path d="M1500.23,790.53v-25.8h7.4v4.7h.3a11.18,11.18,0,0,1,1.1-2,7.58,7.58,0,0,1,1.58-1.67,7.14,7.14,0,0,1,2.15-1.15,8.26,8.26,0,0,1,2.77-.43,8.91,8.91,0,0,1,3.4.63,6.82,6.82,0,0,1,2.65,1.87,9,9,0,0,1,1.73,3,12.54,12.54,0,0,1,.62,4.15v16.7h-7.4v-15.7q0-5-4.35-5a6.34,6.34,0,0,0-1.67.23,4.49,4.49,0,0,0-1.48.7,3.38,3.38,0,0,0-1,1.17,3.46,3.46,0,0,0-.38,1.65v16.95Z"/><path d="M1573,791.13a15.38,15.38,0,0,1-5.47-.92,11,11,0,0,1-4.1-2.68,11.74,11.74,0,0,1-2.58-4.25,18.18,18.18,0,0,1,0-11.3,11.83,11.83,0,0,1,2.58-4.25,10.81,10.81,0,0,1,4.1-2.67,15,15,0,0,1,5.42-.93,12.08,12.08,0,0,1,6.83,1.73,11.09,11.09,0,0,1,3.92,4.57l-5.7,3.1a7.51,7.51,0,0,0-1.82-2.5,4.75,4.75,0,0,0-3.23-1,5.06,5.06,0,0,0-3.92,1.48,5.64,5.64,0,0,0-1.38,4v4.2a5.68,5.68,0,0,0,1.38,4,5.23,5.23,0,0,0,4,1.47,5.18,5.18,0,0,0,3.38-1,8.21,8.21,0,0,0,2.07-2.6l5.6,3.2a11.25,11.25,0,0,1-4.07,4.58A12.8,12.8,0,0,1,1573,791.13Z"/><path d="M1602,791.13a15.06,15.06,0,0,1-5.4-.92,11,11,0,0,1-4.07-2.68,11.74,11.74,0,0,1-2.58-4.25,18.18,18.18,0,0,1,0-11.3,11.83,11.83,0,0,1,2.58-4.25,10.85,10.85,0,0,1,4.07-2.67,16.14,16.14,0,0,1,10.8,0,11,11,0,0,1,4.08,2.67A12,12,0,0,1,1614,772a18.18,18.18,0,0,1,0,11.3,11.86,11.86,0,0,1-2.57,4.25,11.12,11.12,0,0,1-4.08,2.68A15.06,15.06,0,0,1,1602,791.13Zm0-5.5a5,5,0,0,0,3.9-1.55,6.3,6.3,0,0,0,1.4-4.4v-4.1a6.3,6.3,0,0,0-1.4-4.4,5.68,5.68,0,0,0-7.8,0,6.35,6.35,0,0,0-1.4,4.4v4.1a6.35,6.35,0,0,0,1.4,4.4A5,5,0,0,0,1602,785.63Z"/><path d="M1620.68,784.73h6v-14.2h-6v-5.8H1634V772h.35a15,15,0,0,1,1-2.72A8.57,8.57,0,0,1,1637,767a7,7,0,0,1,2.37-1.63,8.38,8.38,0,0,1,3.3-.6h2.45v6.8h-5.5a5.2,5.2,0,0,0-4.15,1.62,5.86,5.86,0,0,0-1.4,4v7.62h8.5v5.8h-21.85Z"/><path d="M1662,791.13a15.06,15.06,0,0,1-5.4-.92,11,11,0,0,1-4.07-2.68,11.74,11.74,0,0,1-2.58-4.25,18.18,18.18,0,0,1,0-11.3,11.83,11.83,0,0,1,2.58-4.25,10.85,10.85,0,0,1,4.07-2.67,16.14,16.14,0,0,1,10.8,0,11,11,0,0,1,4.08,2.67A12,12,0,0,1,1674,772a18.18,18.18,0,0,1,0,11.3,11.86,11.86,0,0,1-2.57,4.25,11.12,11.12,0,0,1-4.08,2.68A15.06,15.06,0,0,1,1662,791.13Zm0-5.5a5,5,0,0,0,3.9-1.55,6.35,6.35,0,0,0,1.4-4.4v-4.1a6.35,6.35,0,0,0-1.4-4.4,5.68,5.68,0,0,0-7.8,0,6.35,6.35,0,0,0-1.4,4.4v4.1a6.35,6.35,0,0,0,1.4,4.4A5,5,0,0,0,1662,785.63Z"/><path d="M1680.23,790.53v-25.8h7.4v4.7h.3a11.18,11.18,0,0,1,1.1-2,7.35,7.35,0,0,1,1.58-1.67,7,7,0,0,1,2.15-1.15,8.22,8.22,0,0,1,2.77-.43,9,9,0,0,1,3.4.63,6.89,6.89,0,0,1,2.65,1.87,9.14,9.14,0,0,1,1.73,3,12.8,12.8,0,0,1,.62,4.15v16.7h-7.4v-15.7q0-5-4.35-5a6.29,6.29,0,0,0-1.67.23,4.4,4.4,0,0,0-1.48.7,3.38,3.38,0,0,0-1,1.17,3.46,3.46,0,0,0-.38,1.65v16.95Z"/><path d="M1731.33,790.53a5.58,5.58,0,0,1-3.7-1.17A5,5,0,0,1,1726,786h-.25a6.36,6.36,0,0,1-2.77,3.85,9.38,9.38,0,0,1-5.08,1.3,8.7,8.7,0,0,1-6-2,7.2,7.2,0,0,1-2.28-5.68,6.68,6.68,0,0,1,3-6q3-1.95,8.65-1.95h4.15v-1.3a5,5,0,0,0-1.07-3.47,4.73,4.73,0,0,0-3.63-1.18,7.13,7.13,0,0,0-3.8.9,8.72,8.72,0,0,0-2.5,2.35l-4-3.6a9.71,9.71,0,0,1,4.08-3.62,15.55,15.55,0,0,1,7.12-1.43q5.3,0,8.28,2.43c2,1.61,3,4.06,3,7.32v11.3h2.85v5.35Zm-10.65-4.25a5.61,5.61,0,0,0,3.3-.95,3.15,3.15,0,0,0,1.35-2.75v-3.1h-3.95q-4.55,0-4.55,3v1a2.3,2.3,0,0,0,1.05,2.05A4.94,4.94,0,0,0,1720.68,786.28Z"/><path d="M1744,778.83v-7.1h16v7.1Z"/><path d="M1791.33,790.53a5.58,5.58,0,0,1-3.7-1.17A5,5,0,0,1,1786,786h-.25a6.36,6.36,0,0,1-2.77,3.85,9.38,9.38,0,0,1-5.08,1.3,8.7,8.7,0,0,1-6-2,7.2,7.2,0,0,1-2.28-5.68,6.68,6.68,0,0,1,3-6q3-1.95,8.65-1.95h4.15v-1.3a5,5,0,0,0-1.08-3.47,4.69,4.69,0,0,0-3.62-1.18,7.13,7.13,0,0,0-3.8.9,8.72,8.72,0,0,0-2.5,2.35l-4-3.6a9.65,9.65,0,0,1,4.08-3.62,15.55,15.55,0,0,1,7.12-1.43q5.3,0,8.27,2.43c2,1.61,3,4.06,3,7.32v11.3h2.85v5.35Zm-10.65-4.25a5.61,5.61,0,0,0,3.3-.95,3.15,3.15,0,0,0,1.35-2.75v-3.1h-3.95q-4.55,0-4.55,3v1a2.3,2.3,0,0,0,1.05,2.05A4.94,4.94,0,0,0,1780.68,786.28Z"/><path d="M1799.93,764.73h7.4v4.75h.35a9.7,9.7,0,0,1,2.75-3.84,7.42,7.42,0,0,1,4.9-1.51,9.47,9.47,0,0,1,3.92.8,7.81,7.81,0,0,1,3,2.45,12.25,12.25,0,0,1,2,4.2,25.44,25.44,0,0,1,0,12.1,12.25,12.25,0,0,1-2,4.2,7.81,7.81,0,0,1-3,2.45,9.47,9.47,0,0,1-3.92.8,7.47,7.47,0,0,1-4.9-1.49,9.4,9.4,0,0,1-2.75-3.85h-.35v14.74h-7.4Zm12.2,20.6a4.88,4.88,0,0,0,3.85-1.51,6.09,6.09,0,0,0,1.35-4.2v-4a6.08,6.08,0,0,0-1.35-4.19,4.89,4.89,0,0,0-3.85-1.52,6,6,0,0,0-3.38,1,3.3,3.3,0,0,0-1.42,3v7.55a3.32,3.32,0,0,0,1.42,3A6,6,0,0,0,1812.13,785.33Z"/><path d="M1829.93,764.73h7.4v4.75h.35a9.7,9.7,0,0,1,2.75-3.84,7.42,7.42,0,0,1,4.9-1.51,9.47,9.47,0,0,1,3.92.8,7.88,7.88,0,0,1,3,2.45,12.25,12.25,0,0,1,2,4.2,25.44,25.44,0,0,1,0,12.1,12.25,12.25,0,0,1-2,4.2,7.88,7.88,0,0,1-3,2.45,9.47,9.47,0,0,1-3.92.8,7.47,7.47,0,0,1-4.9-1.49,9.4,9.4,0,0,1-2.75-3.85h-.35v14.74h-7.4Zm12.2,20.6a4.89,4.89,0,0,0,3.85-1.51,6.09,6.09,0,0,0,1.35-4.2v-4a6.08,6.08,0,0,0-1.35-4.19,4.9,4.9,0,0,0-3.85-1.52,6,6,0,0,0-3.38,1,3.3,3.3,0,0,0-1.42,3v7.55a3.32,3.32,0,0,0,1.42,3A6,6,0,0,0,1842.13,785.33Z"/><rect class="cls-2" x="1377" y="855" width="430.3" height="67.03" transform="translate(3184.3 1777.03) rotate(180)"/><rect class="cls-2" x="1837.41" y="855" width="254.59" height="67.03" transform="translate(3929.41 1777.03) rotate(180)"/><rect class="cls-2" x="1377" y="964.48" width="257" height="67.03" transform="translate(3011 1996) rotate(180)"/><rect class="cls-2" x="1666" y="964.48" width="426" height="67.03" transform="translate(3758 1996) rotate(180)"/><rect class="cls-2" x="1377" y="1073.97" width="153" height="67.03" transform="translate(2907 2214.97) rotate(180)"/><rect class="cls-2" x="1558" y="1073.97" width="153" height="67.03" transform="translate(3269 2214.97) rotate(180)"/><rect class="cls-2" x="1744" y="1073.97" width="348" height="67.03" transform="translate(3836 2214.97) rotate(180)"/></g><g id="Layer_5" data-name="Layer 5"><rect class="cls-4" x="580" y="354" width="566" height="939"/><path d="M642,475.53v-34.9h23.15v6.15H649.49v8h14v6.15h-14v14.6Z"/><path d="M671.69,469.73h5.95v-14.2h-5.95v-5.8H685V457h.35a14.24,14.24,0,0,1,1-2.72A8.8,8.8,0,0,1,688,452a7,7,0,0,1,2.38-1.63,8.31,8.31,0,0,1,3.3-.6h2.45v6.8h-5.5a5.17,5.17,0,0,0-4.15,1.62,5.81,5.81,0,0,0-1.4,4v7.62h8.5v5.8H671.69Z"/><path d="M722.33,475.53a5.6,5.6,0,0,1-3.7-1.17A5,5,0,0,1,717,471h-.25a6.32,6.32,0,0,1-2.77,3.85,9.36,9.36,0,0,1-5.08,1.3,8.72,8.72,0,0,1-6-2,7.21,7.21,0,0,1-2.28-5.68,6.7,6.7,0,0,1,2.95-6c2-1.3,4.85-1.95,8.66-1.95h4.14v-1.3a5,5,0,0,0-1.07-3.47,4.73,4.73,0,0,0-3.63-1.18,7.15,7.15,0,0,0-3.8.9,8.85,8.85,0,0,0-2.5,2.35l-4.05-3.6a9.71,9.71,0,0,1,4.08-3.62,15.55,15.55,0,0,1,7.12-1.43q5.31,0,8.28,2.43t3,7.32v11.3h2.85v5.35Zm-10.64-4.25a5.6,5.6,0,0,0,3.29-.95,3.15,3.15,0,0,0,1.35-2.75v-3.1h-4q-4.54,0-4.55,3v1a2.33,2.33,0,0,0,1,2.05A5,5,0,0,0,711.69,471.28Z"/><path d="M731.23,475.53v-25.8h7.4v4.7h.3a11.18,11.18,0,0,1,1.1-2.05,7.58,7.58,0,0,1,1.58-1.67,7.14,7.14,0,0,1,2.15-1.15,8.26,8.26,0,0,1,2.77-.43,8.91,8.91,0,0,1,3.4.63,6.82,6.82,0,0,1,2.65,1.87,9,9,0,0,1,1.73,3.05,12.54,12.54,0,0,1,.62,4.15v16.7h-7.4v-15.7q0-5-4.35-5a6.34,6.34,0,0,0-1.67.23,4.49,4.49,0,0,0-1.48.7,3.38,3.38,0,0,0-1,1.17,3.46,3.46,0,0,0-.38,1.65v16.95Z"/><path d="M772.68,476.13a19.6,19.6,0,0,1-7.47-1.3,10.62,10.62,0,0,1-4.78-3.55l4.15-3.85a10.84,10.84,0,0,0,3.53,2.58,11.11,11.11,0,0,0,4.62.92,7.31,7.31,0,0,0,3.45-.67,2.21,2.21,0,0,0,1.25-2.08,1.54,1.54,0,0,0-.85-1.52,8.32,8.32,0,0,0-2.35-.68l-4.15-.65a16.8,16.8,0,0,1-3.25-.77,8.58,8.58,0,0,1-2.6-1.43,6.74,6.74,0,0,1-1.75-2.2,7,7,0,0,1-.65-3.15,7.48,7.48,0,0,1,3.1-6.35q3.11-2.3,8.7-2.3a18,18,0,0,1,6.48,1,10.14,10.14,0,0,1,4.27,2.92l-3.7,4.2a9.43,9.43,0,0,0-2.95-2.1,10.08,10.08,0,0,0-4.35-.85c-2.86,0-4.3.87-4.3,2.6a1.62,1.62,0,0,0,.85,1.58,8.82,8.82,0,0,0,2.35.67l4.1.65a17.37,17.37,0,0,1,3.25.78,8.85,8.85,0,0,1,2.63,1.42,6.43,6.43,0,0,1,1.77,2.2,6.92,6.92,0,0,1,.65,3.15,7.59,7.59,0,0,1-3.12,6.4Q778.44,476.14,772.68,476.13Z"/><path d="M803.68,476.13q-6.49,0-9.85-3.6t-3.35-9.8a17,17,0,0,1,.88-5.67,12,12,0,0,1,2.5-4.3,10.39,10.39,0,0,1,3.95-2.7,14,14,0,0,1,5.22-.93,13.73,13.73,0,0,1,5.2.93,10.65,10.65,0,0,1,3.9,2.62,11.77,11.77,0,0,1,2.48,4.13,15.92,15.92,0,0,1,.87,5.42v2.2H797.83v.45a5.42,5.42,0,0,0,1.55,4,6.27,6.27,0,0,0,4.55,1.52,8.35,8.35,0,0,0,4-.87,9.42,9.42,0,0,0,2.85-2.33l4,4.35a12.53,12.53,0,0,1-4.2,3.2A15.27,15.27,0,0,1,803.68,476.13Zm-.6-21.7a5,5,0,0,0-3.82,1.48,5.46,5.46,0,0,0-1.43,4v.4h10.4v-.4a5.61,5.61,0,0,0-1.37-4A5,5,0,0,0,803.08,454.43Z"/><path d="M654,536.13a15.43,15.43,0,0,1-5.48-.92,11,11,0,0,1-4.1-2.68,11.81,11.81,0,0,1-2.57-4.25,18.18,18.18,0,0,1,0-11.3,11.81,11.81,0,0,1,2.57-4.25,10.89,10.89,0,0,1,4.1-2.67,15.09,15.09,0,0,1,5.43-.93,12.07,12.07,0,0,1,6.82,1.73,11.11,11.11,0,0,1,3.93,4.57l-5.7,3.1a7.68,7.68,0,0,0-1.83-2.5,4.67,4.67,0,0,0-3.22-1,5.1,5.1,0,0,0-3.93,1.48,5.63,5.63,0,0,0-1.37,4v4.2a5.68,5.68,0,0,0,1.37,4,5.26,5.26,0,0,0,4,1.47,5.17,5.17,0,0,0,3.37-1,8.38,8.38,0,0,0,2.08-2.6l5.6,3.2a11.35,11.35,0,0,1-4.08,4.58A12.76,12.76,0,0,1,654,536.13Z"/><path d="M683,536.13a15.06,15.06,0,0,1-5.4-.92,11.12,11.12,0,0,1-4.08-2.68,11.81,11.81,0,0,1-2.57-4.25,18.18,18.18,0,0,1,0-11.3,11.81,11.81,0,0,1,2.57-4.25,11,11,0,0,1,4.08-2.67,16.14,16.14,0,0,1,10.8,0,10.93,10.93,0,0,1,4.07,2.67A11.83,11.83,0,0,1,695,517a18.18,18.18,0,0,1,0,11.3,11.83,11.83,0,0,1-2.58,4.25,11.08,11.08,0,0,1-4.07,2.68A15.06,15.06,0,0,1,683,536.13Zm0-5.5a5,5,0,0,0,3.9-1.55,6.35,6.35,0,0,0,1.4-4.4v-4.1a6.35,6.35,0,0,0-1.4-4.4,5.68,5.68,0,0,0-7.8,0,6.3,6.3,0,0,0-1.4,4.4v4.1a6.3,6.3,0,0,0,1.4,4.4A5,5,0,0,0,683,530.63Z"/><path d="M701.69,529.73h5.94v-14.2h-5.94v-5.8H715V517h.35a15,15,0,0,1,1-2.72A8.8,8.8,0,0,1,718,512a7,7,0,0,1,2.37-1.63,8.38,8.38,0,0,1,3.3-.6h2.45v6.8h-5.5a5.16,5.16,0,0,0-4.14,1.62,5.82,5.82,0,0,0-1.41,4v7.62h8.5v5.8H701.69Z"/><path d="M743,536.13a15.06,15.06,0,0,1-5.4-.92,11.08,11.08,0,0,1-4.07-2.68,11.83,11.83,0,0,1-2.58-4.25,18.18,18.18,0,0,1,0-11.3,11.83,11.83,0,0,1,2.58-4.25,10.93,10.93,0,0,1,4.07-2.67,16.14,16.14,0,0,1,10.8,0,11,11,0,0,1,4.08,2.67A11.81,11.81,0,0,1,755,517a18.18,18.18,0,0,1,0,11.3,11.81,11.81,0,0,1-2.57,4.25,11.12,11.12,0,0,1-4.08,2.68A15.06,15.06,0,0,1,743,536.13Zm0-5.5a5,5,0,0,0,3.9-1.55,6.3,6.3,0,0,0,1.4-4.4v-4.1a6.3,6.3,0,0,0-1.4-4.4,5.68,5.68,0,0,0-7.8,0,6.35,6.35,0,0,0-1.4,4.4v4.1a6.35,6.35,0,0,0,1.4,4.4A5,5,0,0,0,743,530.63Z"/><path d="M761.23,535.53v-25.8h7.4v4.7h.3a11.18,11.18,0,0,1,1.1-2,7.58,7.58,0,0,1,1.58-1.67,7.14,7.14,0,0,1,2.15-1.15,8.26,8.26,0,0,1,2.77-.43,8.91,8.91,0,0,1,3.4.63,6.82,6.82,0,0,1,2.65,1.87,9,9,0,0,1,1.73,3,12.54,12.54,0,0,1,.62,4.15v16.7h-7.4v-15.7q0-5-4.35-5a6.34,6.34,0,0,0-1.67.23,4.49,4.49,0,0,0-1.48.7,3.38,3.38,0,0,0-1,1.17,3.46,3.46,0,0,0-.38,1.65v16.95Z"/><path d="M812.33,535.53a5.6,5.6,0,0,1-3.7-1.17A5,5,0,0,1,807,531h-.25a6.32,6.32,0,0,1-2.77,3.85,9.38,9.38,0,0,1-5.08,1.3,8.7,8.7,0,0,1-6-2,7.21,7.21,0,0,1-2.28-5.68,6.7,6.7,0,0,1,2.95-6q3-1.95,8.65-1.95h4.15v-1.3a5,5,0,0,0-1.07-3.47,4.73,4.73,0,0,0-3.63-1.18,7.15,7.15,0,0,0-3.8.9,8.85,8.85,0,0,0-2.5,2.35l-4.05-3.6a9.71,9.71,0,0,1,4.08-3.62,15.55,15.55,0,0,1,7.12-1.43c3.54,0,6.29.81,8.28,2.43s3,4.05,3,7.32v11.3h2.85v5.35Zm-10.65-4.25a5.61,5.61,0,0,0,3.3-.95,3.15,3.15,0,0,0,1.35-2.75v-3.1h-4q-4.54,0-4.55,3v1a2.31,2.31,0,0,0,1,2.05A5,5,0,0,0,801.68,531.28Z"/><path d="M825,523.83v-7.1h16v7.1Z"/><path d="M872.33,535.53a5.6,5.6,0,0,1-3.7-1.17A5,5,0,0,1,867,531h-.25a6.32,6.32,0,0,1-2.77,3.85,9.38,9.38,0,0,1-5.08,1.3,8.7,8.7,0,0,1-6-2,7.21,7.21,0,0,1-2.28-5.68,6.7,6.7,0,0,1,2.95-6q3-1.95,8.65-1.95h4.15v-1.3a5,5,0,0,0-1.07-3.47,4.73,4.73,0,0,0-3.63-1.18,7.15,7.15,0,0,0-3.8.9,8.85,8.85,0,0,0-2.5,2.35l-4.05-3.6a9.71,9.71,0,0,1,4.08-3.62,15.55,15.55,0,0,1,7.12-1.43c3.54,0,6.29.81,8.28,2.43s3,4.05,3,7.32v11.3h2.85v5.35Zm-10.65-4.25a5.61,5.61,0,0,0,3.3-.95,3.15,3.15,0,0,0,1.35-2.75v-3.1h-4q-4.54,0-4.55,3v1a2.31,2.31,0,0,0,1,2.05A5,5,0,0,0,861.68,531.28Z"/><path d="M880.93,509.73h7.4v4.75h.35a9.7,9.7,0,0,1,2.75-3.84,7.42,7.42,0,0,1,4.9-1.51,9.55,9.55,0,0,1,3.93.8,8,8,0,0,1,3,2.45,12.44,12.44,0,0,1,2,4.2,25.78,25.78,0,0,1,0,12.1,12.44,12.44,0,0,1-2,4.2,8,8,0,0,1-3,2.45,9.55,9.55,0,0,1-3.93.8,7.41,7.41,0,0,1-4.9-1.49,9.4,9.4,0,0,1-2.75-3.85h-.35v14.74h-7.4Zm12.2,20.6a4.88,4.88,0,0,0,3.85-1.51,6.09,6.09,0,0,0,1.35-4.2v-4a6.08,6.08,0,0,0-1.35-4.19,4.89,4.89,0,0,0-3.85-1.52,6,6,0,0,0-3.37,1,3.31,3.31,0,0,0-1.43,3v7.55a3.33,3.33,0,0,0,1.43,3A6,6,0,0,0,893.13,530.33Z"/><path d="M910.93,509.73h7.4v4.75h.35a9.7,9.7,0,0,1,2.75-3.84,7.42,7.42,0,0,1,4.9-1.51,9.55,9.55,0,0,1,3.93.8,8,8,0,0,1,3,2.45,12.44,12.44,0,0,1,2,4.2,25.78,25.78,0,0,1,0,12.1,12.44,12.44,0,0,1-2,4.2,8,8,0,0,1-3,2.45,9.55,9.55,0,0,1-3.93.8,7.41,7.41,0,0,1-4.9-1.49,9.4,9.4,0,0,1-2.75-3.85h-.35v14.74h-7.4Zm12.2,20.6a4.88,4.88,0,0,0,3.85-1.51,6.09,6.09,0,0,0,1.35-4.2v-4a6.08,6.08,0,0,0-1.35-4.19,4.89,4.89,0,0,0-3.85-1.52,6,6,0,0,0-3.37,1,3.31,3.31,0,0,0-1.43,3v7.55a3.33,3.33,0,0,0,1.43,3A6,6,0,0,0,923.13,530.33Z"/><path d="M992.33,535.53a5.58,5.58,0,0,1-3.7-1.17A5,5,0,0,1,987,531h-.25a6.36,6.36,0,0,1-2.77,3.85,9.38,9.38,0,0,1-5.08,1.3,8.7,8.7,0,0,1-6-2,7.21,7.21,0,0,1-2.28-5.68,6.68,6.68,0,0,1,2.95-6q3-1.95,8.65-1.95h4.15v-1.3a5,5,0,0,0-1.07-3.47,4.73,4.73,0,0,0-3.63-1.18,7.13,7.13,0,0,0-3.8.9,8.72,8.72,0,0,0-2.5,2.35l-4.05-3.6a9.71,9.71,0,0,1,4.08-3.62,15.55,15.55,0,0,1,7.12-1.43q5.29,0,8.28,2.43t3,7.32v11.3h2.85v5.35Zm-10.65-4.25a5.61,5.61,0,0,0,3.3-.95,3.15,3.15,0,0,0,1.35-2.75v-3.1h-4q-4.54,0-4.55,3v1a2.31,2.31,0,0,0,1,2.05A4.94,4.94,0,0,0,981.68,531.28Z"/><path d="M1001.38,529.73h7.9v-25.4h-7.9v-5.8h15.3v31.2h7.9v5.8h-23.2Z"/><path d="M639.49,595.53v-25.8h6v3.8h.35a9.07,9.07,0,0,1,1.72-3.1,4,4,0,0,1,3.18-1.3q3.75,0,4.6,4.4h.3a9.63,9.63,0,0,1,.75-1.7,5.59,5.59,0,0,1,1.1-1.4,4.75,4.75,0,0,1,1.55-.95,5.85,5.85,0,0,1,2.1-.35q5.4,0,5.4,8v18.45h-6v-17.7a3.86,3.86,0,0,0-.63-2.52,2,2,0,0,0-1.62-.73,2.3,2.3,0,0,0-1.63.63,2.48,2.48,0,0,0-.67,1.92v18.4h-6v-17.7a4.16,4.16,0,0,0-.58-2.52,1.88,1.88,0,0,0-1.57-.73,2.3,2.3,0,0,0-2.4,2.55v18.4Z"/><path d="M672.69,589.73h8.2v-14.2h-8.2v-5.8h15.6v20h7.6v5.8h-23.2Zm11.9-23.3a4.73,4.73,0,0,1-3.48-1,3.47,3.47,0,0,1-1-2.48v-1.45a3.44,3.44,0,0,1,1-2.5,6.54,6.54,0,0,1,6.95,0,3.45,3.45,0,0,1,1,2.5v1.45a3.48,3.48,0,0,1-1,2.48A4.72,4.72,0,0,1,684.59,566.43Z"/><path d="M701.38,589.73h7.9v-25.4h-7.9v-5.8h15.31v31.2h7.89v5.8h-23.2Z"/><path d="M732.58,599.73h9.9v-24.2h-10v-5.8h17.4v28.35a7.55,7.55,0,0,1-2,5.35c-1.3,1.4-3.26,2.1-5.9,2.1h-9.45Zm13.6-33.3a4.72,4.72,0,0,1-3.47-1,3.48,3.48,0,0,1-1-2.48v-1.45a3.45,3.45,0,0,1,1-2.5,6.49,6.49,0,0,1,6.92,0,3.38,3.38,0,0,1,1,2.5v1.45a3.42,3.42,0,0,1-1,2.48A4.71,4.71,0,0,1,746.18,566.43Z"/><path d="M773,596.13a15.06,15.06,0,0,1-5.4-.92,11.08,11.08,0,0,1-4.07-2.68,11.83,11.83,0,0,1-2.58-4.25,18.18,18.18,0,0,1,0-11.3,11.83,11.83,0,0,1,2.58-4.25,10.93,10.93,0,0,1,4.07-2.67,16.14,16.14,0,0,1,10.8,0,11,11,0,0,1,4.08,2.67A11.81,11.81,0,0,1,785,577a18.18,18.18,0,0,1,0,11.3,11.81,11.81,0,0,1-2.57,4.25,11.12,11.12,0,0,1-4.08,2.68A15.06,15.06,0,0,1,773,596.13Zm0-5.5a5,5,0,0,0,3.9-1.55,6.3,6.3,0,0,0,1.4-4.4v-4.1a6.3,6.3,0,0,0-1.4-4.4,5.68,5.68,0,0,0-7.8,0,6.35,6.35,0,0,0-1.4,4.4v4.1a6.35,6.35,0,0,0,1.4,4.4A5,5,0,0,0,773,590.63Z"/><path d="M803.68,596.13q-6.49,0-9.85-3.6t-3.35-9.8a17,17,0,0,1,.88-5.67,12,12,0,0,1,2.5-4.3,10.39,10.39,0,0,1,3.95-2.7,14,14,0,0,1,5.22-.93,13.73,13.73,0,0,1,5.2.93,10.65,10.65,0,0,1,3.9,2.62,11.77,11.77,0,0,1,2.48,4.13,15.92,15.92,0,0,1,.87,5.42v2.2H797.83v.45a5.42,5.42,0,0,0,1.55,4,6.27,6.27,0,0,0,4.55,1.52,8.35,8.35,0,0,0,4-.87,9.42,9.42,0,0,0,2.85-2.33l4,4.35a12.53,12.53,0,0,1-4.2,3.2A15.27,15.27,0,0,1,803.68,596.13Zm-.6-21.7a5,5,0,0,0-3.82,1.48,5.46,5.46,0,0,0-1.43,4v.4h10.4v-.4a5.61,5.61,0,0,0-1.37-4A5,5,0,0,0,803.08,574.43Z"/><path d="M821.23,595.53v-25.8h7.4v4.7h.3a11.18,11.18,0,0,1,1.1-2,7.58,7.58,0,0,1,1.58-1.67,7,7,0,0,1,2.15-1.15,8.22,8.22,0,0,1,2.77-.43,8.91,8.91,0,0,1,3.4.63,6.82,6.82,0,0,1,2.65,1.87,9,9,0,0,1,1.73,3,12.8,12.8,0,0,1,.62,4.15v16.7h-7.4v-15.7q0-5-4.35-5a6.34,6.34,0,0,0-1.67.23,4.49,4.49,0,0,0-1.48.7,3.38,3.38,0,0,0-1,1.17,3.46,3.46,0,0,0-.38,1.65v16.95Z"/><path d="M881.23,558.53h7.4v21H889l3.45-4,5.4-5.75h8.5l-10,10.2,11,15.6h-8.8l-7.5-11.4-2.45,2.45v8.95h-7.4Z"/><path d="M923.68,596.13q-6.49,0-9.85-3.6t-3.35-9.8a17,17,0,0,1,.88-5.67,12,12,0,0,1,2.5-4.3,10.39,10.39,0,0,1,3.95-2.7,14,14,0,0,1,5.22-.93,13.77,13.77,0,0,1,5.2.93,10.82,10.82,0,0,1,3.9,2.62,11.77,11.77,0,0,1,2.48,4.13,15.92,15.92,0,0,1,.87,5.42v2.2H917.83v.45a5.42,5.42,0,0,0,1.55,4,6.25,6.25,0,0,0,4.55,1.52,8.38,8.38,0,0,0,4-.87,9.42,9.42,0,0,0,2.85-2.33l4,4.35a12.53,12.53,0,0,1-4.2,3.2A15.27,15.27,0,0,1,923.68,596.13Zm-.6-21.7a5,5,0,0,0-3.82,1.48,5.46,5.46,0,0,0-1.43,4v.4h10.4v-.4a5.61,5.61,0,0,0-1.37-4A5,5,0,0,0,923.08,574.43Z"/><path d="M953.68,596.13q-6.49,0-9.85-3.6t-3.35-9.8a17,17,0,0,1,.88-5.67,12,12,0,0,1,2.5-4.3,10.39,10.39,0,0,1,3.95-2.7,14,14,0,0,1,5.22-.93,13.77,13.77,0,0,1,5.2.93,10.82,10.82,0,0,1,3.9,2.62,11.77,11.77,0,0,1,2.48,4.13,15.92,15.92,0,0,1,.87,5.42v2.2H947.83v.45a5.42,5.42,0,0,0,1.55,4,6.25,6.25,0,0,0,4.55,1.52,8.38,8.38,0,0,0,4-.87,9.42,9.42,0,0,0,2.85-2.33l4,4.35a12.53,12.53,0,0,1-4.2,3.2A15.27,15.27,0,0,1,953.68,596.13Zm-.6-21.7a5,5,0,0,0-3.82,1.48,5.46,5.46,0,0,0-1.43,4v.4h10.4v-.4a5.61,5.61,0,0,0-1.37-4A5,5,0,0,0,953.08,574.43Z"/><path d="M971.68,589.73h6v-14.2h-6v-5.8H985V577h.35a14.27,14.27,0,0,1,1-2.72A8.57,8.57,0,0,1,988,572a7,7,0,0,1,2.37-1.63,8.31,8.31,0,0,1,3.3-.6h2.45v6.8h-5.5a5.19,5.19,0,0,0-4.15,1.62,5.86,5.86,0,0,0-1.4,4v7.62h8.5v5.8H971.68Z"/><path d="M667.14,658.13a6.48,6.48,0,0,1-3.45,6q-3.45,2-10.85,2a36.42,36.42,0,0,1-6.1-.42,12.58,12.58,0,0,1-3.83-1.23,4.79,4.79,0,0,1-2-1.9,5.12,5.12,0,0,1-.57-2.4,4.13,4.13,0,0,1,1.3-3.32,8.81,8.81,0,0,1,3.65-1.73v-.3a6.53,6.53,0,0,1-2.63-1.42,3.45,3.45,0,0,1-1-2.63A3.19,3.19,0,0,1,643,648a9.92,9.92,0,0,1,3.38-1.4v-.3a8.42,8.42,0,0,1-3.58-3.1,8.83,8.83,0,0,1-1.27-4.85,9.23,9.23,0,0,1,.8-4,7.73,7.73,0,0,1,2.27-2.88,10.33,10.33,0,0,1,3.53-1.75,16.33,16.33,0,0,1,4.6-.6,17.79,17.79,0,0,1,4.55.55v-1.4a3.31,3.31,0,0,1,1-2.5,4.05,4.05,0,0,1,2.9-1h4.55v5.4h-6.2v.45a8.18,8.18,0,0,1,3.27,3,8.82,8.82,0,0,1,1.18,4.67,9.22,9.22,0,0,1-.8,3.95,7.94,7.94,0,0,1-2.3,2.88,10.53,10.53,0,0,1-3.58,1.77,16.57,16.57,0,0,1-4.62.6,19.34,19.34,0,0,1-2.2-.12,15.08,15.08,0,0,1-2-.38,3.13,3.13,0,0,0-.93.75,1.73,1.73,0,0,0-.37,1.15,1.41,1.41,0,0,0,.3,1,1.77,1.77,0,0,0,.82.53,5.21,5.21,0,0,0,1.23.22c.46,0,1,0,1.45,0h5.9a17.78,17.78,0,0,1,4.7.55,9.18,9.18,0,0,1,3.2,1.55,5.87,5.87,0,0,1,1.8,2.35A8,8,0,0,1,667.14,658.13Zm-7,.55a1.83,1.83,0,0,0-.8-1.57,5.57,5.57,0,0,0-3.05-.58h-8.85a2.65,2.65,0,0,0-1,2.1,2.39,2.39,0,0,0,1,2,6,6,0,0,0,3.48.77h4.35a7.37,7.37,0,0,0,3.7-.7A2.23,2.23,0,0,0,660.14,658.68Zm-7.45-15.85a4.29,4.29,0,0,0,3.27-1.1,4,4,0,0,0,1-2.8v-1.2a4,4,0,0,0-1-2.8,4.29,4.29,0,0,0-3.27-1.1,4.13,4.13,0,0,0-3.2,1.1,4,4,0,0,0-1,2.8v1.2a4,4,0,0,0,1,2.8A4.13,4.13,0,0,0,652.69,642.83Z"/><path d="M683.69,656.13q-6.51,0-9.85-3.6t-3.35-9.8a17.31,17.31,0,0,1,.87-5.67,12.1,12.1,0,0,1,2.5-4.3,10.39,10.39,0,0,1,3.95-2.7,14,14,0,0,1,5.23-.93,13.81,13.81,0,0,1,5.2.93,10.82,10.82,0,0,1,3.9,2.62,11.75,11.75,0,0,1,2.47,4.13,15.92,15.92,0,0,1,.88,5.42v2.2H677.84v.45a5.38,5.38,0,0,0,1.55,4,6.25,6.25,0,0,0,4.55,1.52,8.38,8.38,0,0,0,3.95-.87,9.42,9.42,0,0,0,2.85-2.33l4,4.35a12.53,12.53,0,0,1-4.2,3.2A15.3,15.3,0,0,1,683.69,656.13Zm-.6-21.7a5.06,5.06,0,0,0-3.83,1.48,5.45,5.45,0,0,0-1.42,4v.4h10.4v-.4a5.57,5.57,0,0,0-1.38-4A5,5,0,0,0,683.09,634.43Z"/><path d="M717.63,650.79h-.35a9.92,9.92,0,0,1-2.77,3.85,7.37,7.37,0,0,1-4.88,1.49,9.47,9.47,0,0,1-3.92-.8,8,8,0,0,1-3.05-2.45,12.25,12.25,0,0,1-2-4.2,25.78,25.78,0,0,1,0-12.1,12.25,12.25,0,0,1,2-4.2,8,8,0,0,1,3.05-2.45,9.47,9.47,0,0,1,3.92-.8,8.55,8.55,0,0,1,2.75.41,7,7,0,0,1,2.13,1.1,7.56,7.56,0,0,1,1.6,1.69,12.3,12.3,0,0,1,1.17,2.15h.35v-16H725v37h-7.4Zm-4.8-.46a6,6,0,0,0,3.38-.94,3.32,3.32,0,0,0,1.42-3v-7.55a3.3,3.3,0,0,0-1.42-3,6,6,0,0,0-3.38-1,4.9,4.9,0,0,0-3.85,1.52,6.08,6.08,0,0,0-1.35,4.19v4a6.09,6.09,0,0,0,1.35,4.2A4.89,4.89,0,0,0,712.83,650.33Z"/><path d="M743,656.13a15.06,15.06,0,0,1-5.4-.92,11.08,11.08,0,0,1-4.07-2.68,11.74,11.74,0,0,1-2.58-4.25,18.18,18.18,0,0,1,0-11.3,11.83,11.83,0,0,1,2.58-4.25,10.93,10.93,0,0,1,4.07-2.67,16.14,16.14,0,0,1,10.8,0,11,11,0,0,1,4.08,2.67A11.81,11.81,0,0,1,755,637a18.18,18.18,0,0,1,0,11.3,11.73,11.73,0,0,1-2.57,4.25,11.12,11.12,0,0,1-4.08,2.68A15.06,15.06,0,0,1,743,656.13Zm0-5.5a5,5,0,0,0,3.9-1.55,6.3,6.3,0,0,0,1.4-4.4v-4.1a6.3,6.3,0,0,0-1.4-4.4,5.68,5.68,0,0,0-7.8,0,6.35,6.35,0,0,0-1.4,4.4v4.1a6.35,6.35,0,0,0,1.4,4.4A5,5,0,0,0,743,650.63Z"/><path d="M758.33,629.73h6.15l1.85,20.9h.5l3-20.9h6.5l3,20.9h.5l1.9-20.9h5.85l-3,25.8h-8.8l-2.55-17.8h-.5l-2.55,17.8h-8.8Z"/><path d="M791.23,655.53v-25.8h7.4v4.7h.3a11.18,11.18,0,0,1,1.1-2,7.58,7.58,0,0,1,1.58-1.67,7,7,0,0,1,2.15-1.15,8.22,8.22,0,0,1,2.77-.43,8.91,8.91,0,0,1,3.4.63,6.82,6.82,0,0,1,2.65,1.87,9,9,0,0,1,1.73,3,12.8,12.8,0,0,1,.62,4.15v16.7h-7.4v-15.7q0-5-4.35-5a6.34,6.34,0,0,0-1.67.23,4.49,4.49,0,0,0-1.48.7,3.38,3.38,0,0,0-1,1.17,3.46,3.46,0,0,0-.38,1.65v16.95Z"/><path d="M821.38,649.73h7.9v-25.4h-7.9v-5.8h15.3v31.2h7.9v5.8h-23.2Z"/><path d="M863,656.13a15.06,15.06,0,0,1-5.4-.92,11,11,0,0,1-4.07-2.68,11.74,11.74,0,0,1-2.58-4.25,18.18,18.18,0,0,1,0-11.3,11.83,11.83,0,0,1,2.58-4.25,10.85,10.85,0,0,1,4.07-2.67,16.14,16.14,0,0,1,10.8,0,11,11,0,0,1,4.08,2.67A12,12,0,0,1,875,637a18.18,18.18,0,0,1,0,11.3,11.86,11.86,0,0,1-2.57,4.25,11.12,11.12,0,0,1-4.08,2.68A15.06,15.06,0,0,1,863,656.13Zm0-5.5a5,5,0,0,0,3.9-1.55,6.3,6.3,0,0,0,1.4-4.4v-4.1a6.3,6.3,0,0,0-1.4-4.4,5.68,5.68,0,0,0-7.8,0,6.35,6.35,0,0,0-1.4,4.4v4.1a6.35,6.35,0,0,0,1.4,4.4A5,5,0,0,0,863,650.63Z"/><path d="M902.33,655.53a5.58,5.58,0,0,1-3.7-1.17A5,5,0,0,1,897,651h-.25a6.36,6.36,0,0,1-2.77,3.85,9.38,9.38,0,0,1-5.08,1.3,8.7,8.7,0,0,1-6-2,7.2,7.2,0,0,1-2.28-5.68,6.68,6.68,0,0,1,2.95-6q3-1.95,8.65-1.95h4.15v-1.3a5,5,0,0,0-1.07-3.47,4.73,4.73,0,0,0-3.63-1.18,7.13,7.13,0,0,0-3.8.9,8.72,8.72,0,0,0-2.5,2.35l-4.05-3.6a9.71,9.71,0,0,1,4.08-3.62,15.55,15.55,0,0,1,7.12-1.43q5.29,0,8.28,2.43c2,1.61,3,4.06,3,7.32v11.3h2.85v5.35Zm-10.65-4.25a5.61,5.61,0,0,0,3.3-.95,3.15,3.15,0,0,0,1.35-2.75v-3.1h-4q-4.54,0-4.55,3v1a2.3,2.3,0,0,0,1,2.05A4.94,4.94,0,0,0,891.68,651.28Z"/><path d="M927.63,650.79h-.35a10,10,0,0,1-2.77,3.85,7.39,7.39,0,0,1-4.88,1.49,9.47,9.47,0,0,1-3.92-.8,7.88,7.88,0,0,1-3.05-2.45,12.25,12.25,0,0,1-2-4.2,25.44,25.44,0,0,1,0-12.1,12.25,12.25,0,0,1,2-4.2,7.88,7.88,0,0,1,3.05-2.45,9.47,9.47,0,0,1,3.92-.8,8.6,8.6,0,0,1,2.75.41,7.16,7.16,0,0,1,2.13,1.1,7.79,7.79,0,0,1,1.6,1.69,12.3,12.3,0,0,1,1.17,2.15h.35v-16H935v37h-7.4Zm-4.8-.46a6,6,0,0,0,3.38-.94,3.32,3.32,0,0,0,1.42-3v-7.55a3.3,3.3,0,0,0-1.42-3,6,6,0,0,0-3.38-1,4.89,4.89,0,0,0-3.85,1.52,6.08,6.08,0,0,0-1.35,4.19v4a6.09,6.09,0,0,0,1.35,4.2A4.88,4.88,0,0,0,922.83,650.33Z"/><rect class="cls-3" x="638" y="711" width="451" height="288"/><rect class="cls-2" x="638" y="1042" width="262" height="60" transform="translate(1538 2144) rotate(180)"/><rect class="cls-2" x="940" y="1042" width="147" height="60" transform="translate(2027 2144) rotate(180)"/><rect class="cls-2" x="638" y="1138" width="160" height="60" transform="translate(1436 2336) rotate(180)"/><rect class="cls-2" x="836" y="1138" width="251" height="60" transform="translate(1923 2336) rotate(180)"/></g></svg>