<svg xmlns="http://www.w3.org/2000/svg" viewBox="0 0 500 265.33"><defs><style>.cls-1{fill:none;stroke:#000;stroke-linecap:round;stroke-linejoin:round;stroke-width:0;}.cls-2{fill:#fff;}.cls-3{fill:#ff4ca0;}</style></defs><g id="Background"><path d="M463.27,81.15V77H455c-.1-1.6-.1-2.9-.2-4.3-5.4,0-10.8.1-16.3-.1-.1,0-.2-.1-.4-.2v-3.9h-8.4v4h-8.3v-4.2H413v-4.2h-4.3v-4h-8.4v4h-16.5v-4h4v-8.5h-8.4v-4.1h-4.2v4.2H371v4.2h-8.4v4.2h-8.4v4h-4.1V60h-4.2v-4.1h-8.4v12.4h-8.3v-4h-4.3v4.1h-4.1v4.2h-8.4v4.2h-12.5v4.1h-12.4v-4.1h8.2v-8.4h-12.5v-4.1h-12.6v4.2h-8.4v4.2h-8.3v4.2h-4.3v4.2h-4v8.4h8.3v8.4h4v-4.1h4.2v.1h.1V98a29.44,29.44,0,0,0-4.2,0c.1,1.3.1,2.7.2,4.1H254V102h-.1v-4.1h-4.3V102h-4.1V98h-4.3v4.1h-4.1v4h-8.2V102H233v-8.4h-4.2v-4h-8.3v4.2h4.1v12.6h4.2v4.2h4.1v8.2h-8.3V123h-4.1v12.6h8.3v-4.1H233v-4.2h4.2V119h4.1v4.2h4.2v4.1h4.2V119h4.1v4.2h4.1v4.2h-4v8.3h-4.2v-4.2h-8.5v4.2h-8.3v4.1h-12.6v8.4h-4.2v8.4H212V165h4.2v4.2h4.1v4.2h16.8v4.1h4v4.1h-4v8.5h4.1v4.2h4.1v8.3h-4.1v4.3h4.2v4.2h4.2v4H258V211h4.3v-4.2h4.2v-8.4h4.3v-12.5h4.1v-4.2h4.2v-8.3h4.2v-4.2h4v-8.4h-8.4v4.1h-4.2v-4.2h-4.1v-4.1h-4.2v-8.3h4.1v4.3h4.3v4h8.4v-4.1h8.4v-4.2h4.2v-4.2h4v-4.3h-12.5v-4.1h-4.1v-4h8.3v4.1H304v4.1h4.2v4.3h12.6v8.4h8.4v8.3h4.2v8.4h4.2v12.5h4.2v-4.2h4.3v-8.3h4.2V165h4.2v-4.1h8.3V165h4.3v12.5h4.2v12.6h4v8.1h-4.1v-4h-4.1v8.4h4.1v4.2h4.2v4.1h4.2V215H388v-4.2h-8.4v-8.1h-4v-.1h0v-4.1h4v.1h0v4h4.2v-8.5h-4.1v-8.2h4.1V190h4.3v-4.2h4v-8.4h-4v-8.3h4.2v-4.2h4.2v-4.2h4.1v-4.2h-4V144h4.1v-8.3h8.4v-8.3h4.1v12.4H405v8.4h8.3v-8.4h4.1v-4.2h4.2v-16.7h-4.3v8.2h-4.1v-8.3h-8.3v-4.2H409v-8.3h4.2v-4.2h12.6V98H430v-4.1h4v8.2h-4v12.5h8.3v-4.1h4.2v-8.4h16.8V98h4.1v-8.4h8.3v-8.4Zm-201.1,62.7h-.1v.1h-4c-.1-1.37-.1-2.73-.19-4h.1s0-.07,0-.1h-4.1v-4.1h.1v-.1h4v4.2h4.2Zm4.2,4.3h-4.1v-4h4.1c.1,1.3.1,2.7.1,4Zm4.2-33.5h-4.1v4.1h-8.3v-8.2h4.1v-4.1h4.1v4h4.2Zm4.3-37.5v4h-4v4.1h4v4.3h-4.1v4.1h-8.3v-.1h0v-8.2h4.1v-8.3h8.3Zm12.5,45.8h-4v-4.1h-4.2v-8.4h4.1v-4.1h4v4.1h-4v4.2h4.1Zm100.5,46h-4v-4h4Z"/><path d="M258,98v-.1h-.1a.34.34,0,0,0,0,.1Z"/><path d="M161.87,177.35h-8.4v-4.1h-8.4v-8.4h-8.3v-4.2h-8.4v4.1h-4.2v-4.2H120v-4.1h-8.3v-8.4h4V144h-8.4v4h-4.1v-4.1h-4v-12.5h4.1v-4.2h4.1v-4.1h16.8v4.1h4.2v4.1h4.2v-4.2H141v-4.2h4.1v-4.2h8.4v-4.2h4.1v-4.2h-4.1v-4.1h4.2v-4.3h4.1v-4.2h-4.2v-4.2h-4.2v-4.2h-4.1v-4.1h-12.6v8.4h4.1V102h-4.2v4h-4.1v-8.3h-8.4v-4.2h-4v-8.3h4.1V81h4.1v-4.2h4.2v-8.2h4.1v4H145v-4h4.2v4.1h4.1v4.2h-4.1v4.2h4.2v4.1h4.3V81h4.1V68.35h-4.1V60h-4.3v-4.2H145v-4.1h-4.1v.2h.1v4h-4.1v-.2h-.1v-4h4.1v-4.2h-8.5v4.2c-1.1,0-2.1-.1-3.1,0-.8.1-1-.2-1-1v-3.3h-4.1v-4.1h4v-4.2H120v-4.2h-4.3v-4h-4.2v8.2h-4.1v-8.2h-4.2v4.2h-4.1v4.2h8.3v4.2h4.2v4.2h12.6v8.4h-4.1v4.2H116V52h-8.5v4.2h-8.4v4.3H95v3.9h24.9v.2h.1v4.1h-8.3v4.1h-8.3v-.2h-.1v-3.8H95v-.2h-.1v-4.1H78.17v4.2H65.67v-4.1H48.87v-4H32.07v4h-8.4v4.1h4.1v.2h.1V73h-4.2v3.9c2.17,0,4.34.1,6.6.1H32v.2h.1v4.2h-8.4v4.1c1.37.1,2.74.1,4.2.19H28v4.2h4V94H28v4.2h4.2V94h4.2v-4.2h4.2v-4.1h4.2v4h8.4v-4.1h8.3v4.1h4.2v4.2h4.1v8.3H74v4.2h4.1v4.1H74v16.8h4.2v16.8h4.2v8.4h4.2v4h4.1v-4.2h-4v-8.2h4.1v4.1H95v4.2h8.3v4.1h4.2v4.2h4.2v4.2H120v8.4h-4v12.6h4.1v4.2h4.2v4.1h4.2v12.6h4v4.1h-4v8.5h4.1v20.9h4c.1,1.5.2,2.9.3,4.3H145V236h-4v-8.3h4.1v-8.4h4.3v-8.4h4.1v-4.1h4.3v-4.2H162v-8.4h4v-12.7h-4.1Zm-33.5-109V56.05c2.7.1,5.4.1,8.2.1v8.2h-4.1v4.1h-4.1Zm-8.5-25h-8.1v-4h8.1Zm-75.1,37.9h4v3.9h-4Zm41.7,62.6h-4v-8.2h4Z"/><path d="M216.37,64.35h8.4v-4.1h4v-8.4h-4v-4.1H233v-4.3h-4.1v-4.1h4.2v-4.2h4.1V31h4.1v-4.3H233v-4.2h-12.6v-4.2c-5.6,0-11.2,0-16.8.1v4.3h-12.5v4.1h-8.4v8.4h-8.4v4.2h-8.2v4.2h4.1v4.2h8.4V52h4.2v8.4h4v8.2h-4v4.2h4.1v4.1h4.2v4.3h4.3v4.1h8.4V72.75H208v-4.2h8.4Z"/><path d="M463.17,231.81v-.06c-2.7.1-5.5.1-8.4.1v4.3h-4v8.5h4.1v-4.4h4.3v-4.2h4.2c-.1-1.46-.1-2.83-.19-4.2h0Z"/><path d="M434,244.55h4.1v-4.3H434Z"/><path d="M434.07,210.85h-8.4v-4.1h-8.4v-4.1H413v4.1h-4.2V211h-8.4v8.4h-4V232h4.2v4.1h8.3V232c5.6,0,11.1,0,16.8.1v4h12.5v-16.7h-4.1Z"/><path d="M145.07,35.05a34,34,0,0,0,4.3-.2v4.2h4.2v4.3h4.3v-4.2h4.2v-4.1h8.3v-4.2h8.3v-8.3h-25.2v4.1h-16.7V31h8.3Z"/><path d="M266.57,43.45h12.5v4.1h4.3v-8.4h8.3V35h-4.2v-4.1h-12.6V35h-4.1V31h-4.3v4.1h-4v4.2h4.1Zm12.6-8.3h3.9v4h-3.9Z"/><path d="M392.07,190.05v4.1H388v8.3h8.4v-4h4.1v8.2h4.3v-4.1h4v-8.3h-4.1v4h-4.2v-8.2Z"/><path d="M438.07,198.25h-8.4v-4h-12.5v4.2h4.2v4.2h8.3v4.1h12.5v-4.2h-4.1Z"/><path d="M316.77,65.15c0-.7.2-.9.9-.9H321v-4.1h8.4V56h4.1v-4.1h-8.4v4.2c-2.9,0-5.6,0-8.4-.1v4.2h-4.1v4.1h-4.1v4.2h8.3Z"/><path d="M99,43.55v4h-4.1v-8.2h-8.3v8.3h8.2c.1,1.5.1,2.9.2,4.3,4.1,0,8.3-.1,12.4-.1v-8.3Z"/><path d="M371.17,39.25h4.2v4.1h8.4v-4.1h-4.2v-4.2h-8.3v-8.3h-8.4v8.4c2.7,0,5.5,0,8.3-.1Z"/><path d="M404.77,169.05h-4.2v4.3h4.2v-4.1h4v4.1h-4a28,28,0,0,0,0,4.1h4.1v8.2h4.3v-4.1h4v-4.2h-4.1v-8.3h-4.2V165h-4.1Z"/><path d="M404.67,43.45H413v4.2h4.2v4.1h4.2v-8.4h-8.3v-4h-12.6v8.1h4.2Z"/><path d="M170.27,106.25h-4.2v-4.2h-4.2v12.6h12.5v-4.2h-4.1Z"/><path d="M333.37,30.85H346v-8.2h-4.2v4h-4.1v-4h-8.3v4.1h4.1C333.47,28.15,333.47,29.55,333.37,30.85Z"/><path d="M145,43.45h.1q-.15-4.2,0-8.4c-4.1,0-8.3-.1-12.4-.1v8.5Z"/><path d="M283.27,198.35h-4.2v8.3h4.3v-4.1h4c0-4.2,0-8.4.1-12.5h-4.2Z"/><path d="M82.47,60.15h8.3v-4.1H95V52H82.47Z"/><path d="M228.87,64.45v8.3h12.5v-4.2h-4.1v-4.1Z"/><path d="M140.87,148.05v-4.2h-8.3v-4.2h-4.2v-4h-4.1v4.1h4.1V144h4.2v4.1Z"/><path d="M350.27,181.65h-4.1v4.1h8.2v-8.3h-4.1Z"/><path d="M325.07,26.85h-8.3V31h8.3Z"/><path d="M463.27,223.55h-4.1v4.3h4v4h0c1.39-.1,2.79-.1,4.19-.1v-4.1h-4.1Z"/><path d="M463.17,68.65h-8.4v4h8.4Z"/><path class="cls-1" d="M132.63,35l0,0"/><path d="M132.67,31h-8.4v4h8.4A26.69,26.69,0,0,1,132.67,31Z"/><path d="M145,81.05v-4h-8.3v4Z"/><path d="M400.57,56.05h8.2V52h-8.2Z"/><path d="M145,43.45v4.1h8.4v-4.1H145Z"/><path d="M216.37,106.25h4v-8.2h-4Z"/><path d="M417.17,144h4.2v-4.2h-4.2Z"/><path d="M387.87,219.25H392v-4.2h-4.1A29.44,29.44,0,0,1,387.87,219.25Z"/><path d="M404.77,156.65v4h4v-4Z"/></g><g id="wittestip"><rect class="cls-2" x="82.5" y="108.51" width="3.97" height="3.97"/><rect class="cls-2" x="86.66" y="108.51" width="3.97" height="3.97"/><rect class="cls-2" x="90.82" y="108.51" width="3.97" height="3.97"/><rect class="cls-2" x="93" y="140.06" width="3.97" height="3.97"/><rect class="cls-2" x="137.5" y="215.25" width="3.97" height="3.97"/><rect class="cls-2" x="94.98" y="108.51" width="3.97" height="3.97"/><rect class="cls-2" x="90.82" y="85.66" width="3.97" height="3.97"/><rect class="cls-2" x="99.14" y="108.51" width="3.97" height="3.97"/><rect class="cls-2" x="231.16" y="66.96" width="3.97" height="3.97"/><rect class="cls-2" x="237.11" y="106.61" width="3.97" height="3.97"/><rect class="cls-2" x="237.11" y="110.88" width="3.97" height="3.97"/><rect class="cls-2" x="226.9" y="125.29" width="3.97" height="3.97"/><rect class="cls-2" x="220.94" y="140.18" width="3.97" height="3.97"/><rect class="cls-2" x="233.8" y="167.57" width="3.97" height="3.97"/><rect class="cls-2" x="245.64" y="110.88" width="3.97" height="3.97"/><rect class="cls-2" x="245.64" y="115.14" width="3.97" height="3.97"/><rect class="cls-2" x="249.91" y="110.88" width="3.97" height="3.97"/><rect class="cls-2" x="249.91" y="106.61" width="3.97" height="3.97"/><rect class="cls-2" x="254.1" y="110.88" width="3.97" height="3.97"/><rect class="cls-2" x="383.9" y="87.66" width="3.97" height="3.97"/><rect class="cls-2" x="249.91" y="115.14" width="3.97" height="3.97"/><rect class="cls-2" x="262.5" y="133.76" width="3.97" height="3.97"/><rect class="cls-2" x="266.77" y="133.76" width="3.97" height="3.97"/><rect class="cls-2" x="274.55" y="112.6" width="3.97" height="3.97"/><rect class="cls-2" x="289.69" y="123.31" width="3.97" height="3.97"/><rect class="cls-2" x="337.67" y="173.31" width="3.97" height="3.97"/><rect class="cls-2" x="342.2" y="173.48" width="3.97" height="3.97"/><rect class="cls-2" x="359.86" y="146.16" width="3.97" height="3.97"/><rect class="cls-2" x="383.9" y="164.96" width="3.97" height="3.97"/><rect class="cls-2" x="408.94" y="169.31" width="3.97" height="3.97"/><rect class="cls-2" x="404.79" y="173.31" width="3.97" height="3.97"/><rect class="cls-2" x="388" y="194.58" width="3.97" height="3.97"/><rect class="cls-2" x="371.34" y="200.56" width="3.97" height="3.97"/><rect class="cls-2" x="392.4" y="194.25" width="3.97" height="3.97"/><rect class="cls-2" x="392.4" y="198.51" width="3.97" height="3.97"/><rect class="cls-2" x="375.59" y="204.54" width="3.97" height="3.97"/><rect class="cls-2" x="455" y="231.85" width="3.97" height="3.97"/><rect class="cls-2" x="417.4" y="219.58" width="3.97" height="3.97"/><rect class="cls-2" x="408.94" y="123.38" width="3.97" height="3.97"/><rect class="cls-2" x="279.14" y="137.76" width="3.97" height="3.97"/><rect class="cls-2" x="283.29" y="137.76" width="3.97" height="3.97"/><rect class="cls-2" x="252.68" y="70.81" width="3.97" height="3.97"/></g><g id="rozestip"><rect class="cls-3" x="94.98" y="85.66" width="3.97" height="3.97"/><rect class="cls-3" x="224.91" y="93.75" width="3.97" height="3.97"/><rect class="cls-3" x="224.91" y="98.11" width="3.97" height="3.97"/><rect class="cls-3" x="241.39" y="102.35" width="3.97" height="3.97"/><rect class="cls-3" x="237.11" y="102.35" width="3.97" height="3.97"/><rect class="cls-3" x="241.39" y="115.14" width="3.97" height="3.97"/><rect class="cls-3" x="253.9" y="119.41" width="3.97" height="3.97"/><rect class="cls-3" x="266.77" y="121.39" width="3.97" height="3.97"/><rect class="cls-3" x="314.79" y="131.78" width="3.97" height="3.97"/><rect class="cls-3" x="417.29" y="129.79" width="3.97" height="3.97"/><rect class="cls-3" x="387.94" y="164.96" width="3.97" height="3.97"/><rect class="cls-3" x="237.11" y="115.14" width="3.97" height="3.97"/><rect class="cls-3" x="245.79" y="121.39" width="3.97" height="3.97"/><rect class="cls-3" x="220.94" y="121.39" width="3.97" height="3.97"/><rect class="cls-3" x="260.09" y="179.61" width="3.97" height="3.97"/><rect class="cls-3" x="241.51" y="121.39" width="3.97" height="3.97"/><rect class="cls-3" x="232.82" y="115.14" width="3.97" height="3.97"/><rect class="cls-3" x="216.4" y="98.21" width="3.97" height="3.97"/><rect class="cls-3" x="241.39" y="106.61" width="3.97" height="3.97"/><rect class="cls-3" x="245.64" y="106.61" width="3.97" height="3.97"/><rect class="cls-3" x="254.1" y="102.35" width="3.97" height="3.97"/><rect class="cls-3" x="278.52" y="75.26" width="3.97" height="3.97"/><rect class="cls-3" x="241.39" y="110.88" width="3.97" height="3.97"/></g></svg>