<svg xmlns="http://www.w3.org/2000/svg" viewBox="0 0 512 512"><g id="Telefoon"><rect x="193.54" y="63.99" width="27.51" height="27.51"/><rect x="248.57" y="63.99" width="27.51" height="27.51"/><rect x="400.8" y="229.06" width="27.51" height="27.51"/><rect x="400.8" y="284.09" width="27.51" height="27.51"/><polygon points="352.96 282 314.05 320.9 430.78 437.63 469.68 398.73 352.96 282"/><rect x="130.91" y="43.84" width="55" height="165.04" transform="translate(-42.95 149.02) rotate(-45)"/><path d="M283.15,337.71c-61.39-34.1-80.71-62.07-102.62-102.6a13.37,13.37,0,0,1-1-9.82L61.9,107.63c-21.1,27.94-25.77,65.59-11,97.55,38.5,83.26,115.45,196.54,263.43,263.41a91.07,91.07,0,0,0,37.58,8c20.8,0,41.37-7.29,58.5-20.42L292.94,338.68A13.33,13.33,0,0,1,283.15,337.71Z"/><path d="M366.32,238.44a3.68,3.68,0,0,0,6.43,0l48.52-87.76a58.78,58.78,0,1,0-103.46,0Zm3.21-145.06a29.39,29.39,0,1,1-29.39,29.39A29.42,29.42,0,0,1,369.53,93.38Z"/></g><g id="Oog"><rect x="-24.02" y="230.32" width="542.36" height="66.67" transform="translate(-114.04 251.99) rotate(-45)"/><path d="M265.8,183.48a67.28,67.28,0,0,0-9.8-.72A73.33,73.33,0,0,0,182.76,256a72.59,72.59,0,0,0,.68,9.84Z"/><path d="M303.2,269.13l-59.12,59.13a74.31,74.31,0,0,0,11.92,1,73.2,73.2,0,0,0,72-60.89A43.85,43.85,0,0,1,303.2,269.13Z"/><path d="M159.27,290A102.53,102.53,0,0,1,290,159.27L317.28,132A251,251,0,0,0,256,124.16c-134.45,0-241.8,117.09-246.26,122.07a14.65,14.65,0,0,0,0,19.54c2.58,2.89,39.75,43.45,96.73,77Z"/><path d="M502.26,246.23c-2.6-2.91-40.41-44.16-98.24-77.91L352.1,220.24A102.53,102.53,0,0,1,220.24,352.1l-27.41,27.4A251.4,251.4,0,0,0,256,387.84c134.45,0,241.8-117.09,246.26-122.07A14.65,14.65,0,0,0,502.26,246.23Z"/></g></svg>