<svg id="Capa_1" data-name="Capa 1" xmlns="http://www.w3.org/2000/svg" viewBox="0 0 512 512"><defs><style>.cls-1{fill:#ff4ca0;}.cls-2{fill:#fff;}.cls-3{fill:#4f38ff;}</style></defs><rect class="cls-1" width="512" height="513"/><rect x="191.93" y="280.79" width="119.91" height="194.44"/><rect class="cls-2" x="202" y="294.01" width="99.77" height="142"/><circle class="cls-2" cx="251.74" cy="456.6" r="8.26"/><path class="cls-3" d="M256.25,363.91l17.93-20-28.25-30.32v39.93l-16.67-16.66-6.08,6.07,20.92,21-20.92,21,6.08,6.08,16.67-16.67.52,38.38,28.75-28.77ZM264.16,344l-9.67,9.67-.07-19.41Zm-9.67,30.19,9.67,9.67-9.74,9.74Z"/><rect x="351.93" y="27.01" width="119.91" height="194.44"/><rect class="cls-2" x="362" y="40.23" width="99.77" height="142"/><circle class="cls-2" cx="411.74" cy="202.82" r="8.26"/><path class="cls-3" d="M416.25,110.13l17.93-20L405.92,59.81V99.74L389.26,83.08l-6.08,6.07,20.91,21-20.91,21,6.08,6.08,16.66-16.67.53,38.38,28.75-28.77Zm7.91-19.93-9.67,9.67-.07-19.41Zm-9.67,30.19,9.67,9.67-9.74,9.74Z"/><rect x="41.93" y="32.88" width="119.91" height="194.44"/><rect class="cls-2" x="52" y="46.1" width="99.77" height="142"/><circle class="cls-2" cx="101.74" cy="208.68" r="8.26"/><path class="cls-3" d="M106.25,116l17.93-20L95.93,65.68v39.93L79.26,88.94,73.18,95,94.1,116,73.18,137l6.08,6.08,16.67-16.67.52,38.37L125.2,136Zm7.91-19.93-9.67,9.67-.07-19.41Zm-9.67,30.19,9.67,9.67-9.74,9.74Z"/><rect class="cls-3" x="191.93" y="109.35" width="26.61" height="26.61"/><rect class="cls-3" x="240.2" y="109.35" width="26.61" height="26.61"/><rect class="cls-3" x="288.47" y="109.35" width="26.61" height="26.61"/><rect class="cls-3" x="88.58" y="252.61" width="26.61" height="26.61" transform="translate(367.8 164.02) rotate(90)"/><rect class="cls-3" x="88.58" y="300.87" width="26.61" height="26.61" transform="translate(416.07 212.29) rotate(90)"/><rect class="cls-3" x="138.47" y="349.83" width="26.61" height="26.61" transform="translate(514.91 211.36) rotate(90)"/><rect class="cls-3" x="88.58" y="349.14" width="26.61" height="26.61" transform="translate(464.34 260.56) rotate(90)"/><rect class="cls-3" x="398.82" y="252.61" width="26.61" height="26.61" transform="translate(678.04 -146.21) rotate(90)"/><rect class="cls-3" x="398.82" y="300.87" width="26.61" height="26.61" transform="translate(726.31 -97.95) rotate(90)"/><rect class="cls-3" x="348.93" y="349.83" width="26.61" height="26.61" transform="translate(725.37 0.89) rotate(90)"/><rect class="cls-3" x="398.82" y="349.14" width="26.61" height="26.61" transform="translate(774.57 -49.68) rotate(90)"/></svg>